<?xml version="1.0" encoding="UTF-8" standalone="no"?><svg xmlns="http://www.w3.org/2000/svg" xmlns:xlink="http://www.w3.org/1999/xlink" contentScriptType="application/ecmascript" contentStyleType="text/css" height="2378px" preserveAspectRatio="none" style="width:3528px;height:2378px;" version="1.1" viewBox="0 0 3528 2378" width="3528px" zoomAndPan="magnify"><defs><filter height="300%" id="fih512n" width="300%" x="-1" y="-1"><feGaussianBlur result="blurOut" stdDeviation="2.0"/><feColorMatrix in="blurOut" result="blurOut2" type="matrix" values="0 0 0 0 0 0 0 0 0 0 0 0 0 0 0 0 0 0 .4 0"/><feOffset dx="4.0" dy="4.0" in="blurOut2" result="blurOut3"/><feBlend in="SourceGraphic" in2="blurOut3" mode="normal"/></filter></defs><g><text fill="#000000" font-family="sans-serif" font-size="18" lengthAdjust="spacingAndGlyphs" textLength="313" x="1619.5" y="16.708">Internet Of Things -- Class Diagram</text><!--cluster IOT--><polygon fill="#FFFFFF" filter="url(#fih512n)" points="766,150.4531,798,150.4531,805,172.75,3518,172.75,3518,2371.9531,766,2371.9531,766,150.4531" style="stroke: #000000; stroke-width: 2.0;"/><line style="stroke: #000000; stroke-width: 2.0;" x1="766" x2="805" y1="172.75" y2="172.75"/><text fill="#000000" font-family="sans-serif" font-size="14" font-weight="bold" lengthAdjust="spacingAndGlyphs" textLength="26" x="770" y="165.4482">IOT</text><!--cluster IOTServerPackage--><polygon fill="#FFFFFF" filter="url(#fih512n)" points="1833,390.4531,1918,390.4531,1925,412.75,2974,412.75,2974,1107.4531,1833,1107.4531,1833,390.4531" style="stroke: #000000; stroke-width: 2.0;"/><line style="stroke: #000000; stroke-width: 2.0;" x1="1833" x2="1925" y1="412.75" y2="412.75"/><text fill="#000000" font-family="sans-serif" font-size="14" font-weight="bold" lengthAdjust="spacingAndGlyphs" textLength="79" x="1837" y="405.4482">IOTServer</text><!--cluster UDPListener--><polygon fill="#FFFFFF" filter="url(#fih512n)" points="2384,441.4531,2487,441.4531,2494,463.75,2942,463.75,2942,790.4531,2384,790.4531,2384,441.4531" style="stroke: #000000; stroke-width: 2.0;"/><line style="stroke: #000000; stroke-width: 2.0;" x1="2384" x2="2494" y1="463.75" y2="463.75"/><text fill="#000000" font-family="sans-serif" font-size="14" font-weight="bold" lengthAdjust="spacingAndGlyphs" textLength="97" x="2388" y="456.4482">UDPListener</text><!--cluster IOTClientPackage--><polygon fill="#FFFFFF" filter="url(#fih512n)" points="811,1496.4531,888,1496.4531,895,1518.75,1786,1518.75,1786,2041.9531,811,2041.9531,811,1496.4531" style="stroke: #000000; stroke-width: 2.0;"/><line style="stroke: #000000; stroke-width: 2.0;" x1="811" x2="895" y1="1518.75" y2="1518.75"/><text fill="#000000" font-family="sans-serif" font-size="14" font-weight="bold" lengthAdjust="spacingAndGlyphs" textLength="71" x="815" y="1511.4482">IOTClient</text><!--cluster UDPBroadcastService--><polygon fill="#FFFFFF" filter="url(#fih512n)" points="1344,1547.4531,1520,1547.4531,1527,1569.75,1754,1569.75,1754,2009.9531,1344,2009.9531,1344,1547.4531" style="stroke: #000000; stroke-width: 2.0;"/><line style="stroke: #000000; stroke-width: 2.0;" x1="1344" x2="1527" y1="1569.75" y2="1569.75"/><text fill="#000000" font-family="sans-serif" font-size="14" font-weight="bold" lengthAdjust="spacingAndGlyphs" textLength="170" x="1348" y="1562.4482">UDPBroadcastService</text><!--cluster IOTApplicationPackage--><polygon fill="#FFFFFF" filter="url(#fih512n)" points="1833,1156.4531,1952,1156.4531,1959,1178.75,3279,1178.75,3279,2005.4531,1833,2005.4531,1833,1156.4531" style="stroke: #000000; stroke-width: 2.0;"/><line style="stroke: #000000; stroke-width: 2.0;" x1="1833" x2="1959" y1="1178.75" y2="1178.75"/><text fill="#000000" font-family="sans-serif" font-size="14" font-weight="bold" lengthAdjust="spacingAndGlyphs" textLength="113" x="1837" y="1171.4482">IOTApplication</text><!--cluster alarmclockPackage--><polygon fill="#FFFFFF" filter="url(#fih512n)" points="1951,1445.4531,2041,1445.4531,2048,1467.75,3247,1467.75,3247,1774.4531,1951,1774.4531,1951,1445.4531" style="stroke: #000000; stroke-width: 2.0;"/><line style="stroke: #000000; stroke-width: 2.0;" x1="1951" x2="2048" y1="1467.75" y2="1467.75"/><text fill="#000000" font-family="sans-serif" font-size="14" font-weight="bold" lengthAdjust="spacingAndGlyphs" textLength="84" x="1955" y="1460.4482">alarmclock</text><!--cluster testcases--><polygon fill="#FFFFFF" filter="url(#fih512n)" points="2764,1207.4531,2847,1207.4531,2854,1229.75,3050,1229.75,3050,1396.4531,2764,1396.4531,2764,1207.4531" style="stroke: #000000; stroke-width: 2.0;"/><line style="stroke: #000000; stroke-width: 2.0;" x1="2764" x2="2854" y1="1229.75" y2="1229.75"/><text fill="#000000" font-family="sans-serif" font-size="14" font-weight="bold" lengthAdjust="spacingAndGlyphs" textLength="77" x="2768" y="1222.4482">testcases</text><!--class DeviceDetection--><rect fill="#FEFECE" filter="url(#fih512n)" height="163.2422" style="stroke: #A80036; stroke-width: 1.5;" width="161" x="3303.5" y="1837.4531"/><ellipse cx="3330.65" cy="1853.4531" fill="#ADD1B2" rx="11" ry="11" style="stroke: #A80036; stroke-width: 1.0;"/><path d="M3332.9938,1849.125 L3333.1656,1849.2031 C3333.3844,1848.8906 3333.5875,1848.7969 3333.8844,1848.7969 C3334.1813,1848.7969 3334.4625,1848.9375 3334.6188,1849.2031 C3334.7125,1849.3594 3334.7281,1849.4844 3334.7281,1849.9219 L3334.7281,1851.3438 C3334.7281,1851.7656 3334.6969,1851.9531 3334.5875,1852.1094 C3334.4156,1852.3281 3334.15,1852.4688 3333.8844,1852.4688 C3333.6656,1852.4688 3333.4313,1852.3594 3333.2906,1852.2188 C3333.15,1852.0938 3333.1188,1851.9688 3333.0563,1851.5625 C3332.9625,1851.1563 3332.7906,1850.9375 3332.3063,1850.6563 C3331.8375,1850.4063 3331.2281,1850.25 3330.65,1850.25 C3328.9156,1850.25 3327.6656,1851.5625 3327.6656,1853.3438 L3327.6656,1854.4375 C3327.6656,1856.1406 3328.9625,1857.2344 3331.0094,1857.2344 C3331.775,1857.2344 3332.4625,1857.1094 3332.8844,1856.8438 C3333.0719,1856.75 3333.0719,1856.75 3333.525,1856.2656 C3333.7125,1856.0781 3333.9156,1856 3334.1344,1856 C3334.6031,1856 3334.9938,1856.3906 3334.9938,1856.8438 C3334.9938,1857.2344 3334.6656,1857.6875 3334.0875,1858.0938 C3333.3375,1858.6406 3332.1813,1858.9375 3330.9625,1858.9375 C3328.0719,1858.9375 3325.9625,1857.0469 3325.9625,1854.4688 L3325.9625,1853.3438 C3325.9625,1850.625 3327.9625,1848.5469 3330.5875,1848.5469 C3331.4625,1848.5469 3332.0563,1848.6875 3332.9938,1849.125 Z "/><text fill="#000000" font-family="sans-serif" font-size="12" lengthAdjust="spacingAndGlyphs" textLength="102" x="3347.35" y="1857.6074">DeviceDetection</text><line style="stroke: #A80036; stroke-width: 1.5;" x1="3304.5" x2="3463.5" y1="1869.4531" y2="1869.4531"/><rect fill="none" height="6" style="stroke: #C82930; stroke-width: 1.0;" width="6" x="3311.5" y="1878.3555"/><text fill="#000000" font-family="sans-serif" font-size="11" lengthAdjust="spacingAndGlyphs" textLength="121" x="3323.5" y="1883.6636">private boolean isWin</text><rect fill="none" height="6" style="stroke: #C82930; stroke-width: 1.0;" width="6" x="3311.5" y="1891.1602"/><text fill="#000000" font-family="sans-serif" font-size="11" lengthAdjust="spacingAndGlyphs" textLength="124" x="3323.5" y="1896.4683">private boolean isMac</text><rect fill="none" height="6" style="stroke: #C82930; stroke-width: 1.0;" width="6" x="3311.5" y="1903.9648"/><text fill="#000000" font-family="sans-serif" font-size="11" lengthAdjust="spacingAndGlyphs" textLength="118" x="3323.5" y="1909.2729">private boolean isLin</text><rect fill="none" height="6" style="stroke: #C82930; stroke-width: 1.0;" width="6" x="3311.5" y="1916.7695"/><text fill="#000000" font-family="sans-serif" font-size="11" lengthAdjust="spacingAndGlyphs" textLength="130" x="3323.5" y="1922.0776">private boolean isRasp</text><line style="stroke: #A80036; stroke-width: 1.5;" x1="3304.5" x2="3463.5" y1="1928.6719" y2="1928.6719"/><ellipse cx="3314.5" cy="1940.5742" fill="#84BE84" rx="3" ry="3" style="stroke: #038048; stroke-width: 1.0;"/><text fill="#000000" font-family="sans-serif" font-size="11" lengthAdjust="spacingAndGlyphs" textLength="135" x="3323.5" y="1942.8823">public DeviceDetection()</text><ellipse cx="3314.5" cy="1953.3789" fill="#84BE84" rx="3" ry="3" style="stroke: #038048; stroke-width: 1.0;"/><text fill="#000000" font-family="sans-serif" font-size="11" lengthAdjust="spacingAndGlyphs" textLength="123" x="3323.5" y="1955.687">public boolean isWin()</text><ellipse cx="3314.5" cy="1966.1836" fill="#84BE84" rx="3" ry="3" style="stroke: #038048; stroke-width: 1.0;"/><text fill="#000000" font-family="sans-serif" font-size="11" lengthAdjust="spacingAndGlyphs" textLength="126" x="3323.5" y="1968.4917">public boolean isMac()</text><ellipse cx="3314.5" cy="1978.9883" fill="#84BE84" rx="3" ry="3" style="stroke: #038048; stroke-width: 1.0;"/><text fill="#000000" font-family="sans-serif" font-size="11" lengthAdjust="spacingAndGlyphs" textLength="120" x="3323.5" y="1981.2964">public boolean isLin()</text><ellipse cx="3314.5" cy="1991.793" fill="#84BE84" rx="3" ry="3" style="stroke: #038048; stroke-width: 1.0;"/><text fill="#000000" font-family="sans-serif" font-size="11" lengthAdjust="spacingAndGlyphs" textLength="132" x="3323.5" y="1994.1011">public boolean isRasp()</text><!--class IOTRunner--><rect fill="#FEFECE" filter="url(#fih512n)" height="150.4375" style="stroke: #A80036; stroke-width: 1.5;" width="317" x="1907.5" y="185.4531"/><ellipse cx="2029.75" cy="201.4531" fill="#ADD1B2" rx="11" ry="11" style="stroke: #A80036; stroke-width: 1.0;"/><path d="M2032.0938,197.125 L2032.2656,197.2031 C2032.4844,196.8906 2032.6875,196.7969 2032.9844,196.7969 C2033.2813,196.7969 2033.5625,196.9375 2033.7188,197.2031 C2033.8125,197.3594 2033.8281,197.4844 2033.8281,197.9219 L2033.8281,199.3438 C2033.8281,199.7656 2033.7969,199.9531 2033.6875,200.1094 C2033.5156,200.3281 2033.25,200.4688 2032.9844,200.4688 C2032.7656,200.4688 2032.5313,200.3594 2032.3906,200.2188 C2032.25,200.0938 2032.2188,199.9688 2032.1563,199.5625 C2032.0625,199.1563 2031.8906,198.9375 2031.4063,198.6563 C2030.9375,198.4063 2030.3281,198.25 2029.75,198.25 C2028.0156,198.25 2026.7656,199.5625 2026.7656,201.3438 L2026.7656,202.4375 C2026.7656,204.1406 2028.0625,205.2344 2030.1094,205.2344 C2030.875,205.2344 2031.5625,205.1094 2031.9844,204.8438 C2032.1719,204.75 2032.1719,204.75 2032.625,204.2656 C2032.8125,204.0781 2033.0156,204 2033.2344,204 C2033.7031,204 2034.0938,204.3906 2034.0938,204.8438 C2034.0938,205.2344 2033.7656,205.6875 2033.1875,206.0938 C2032.4375,206.6406 2031.2813,206.9375 2030.0625,206.9375 C2027.1719,206.9375 2025.0625,205.0469 2025.0625,202.4688 L2025.0625,201.3438 C2025.0625,198.625 2027.0625,196.5469 2029.6875,196.5469 C2030.5625,196.5469 2031.1563,196.6875 2032.0938,197.125 Z "/><text fill="#000000" font-family="sans-serif" font-size="12" lengthAdjust="spacingAndGlyphs" textLength="64" x="2050.25" y="205.6074">IOTRunner</text><line style="stroke: #A80036; stroke-width: 1.5;" x1="1908.5" x2="2223.5" y1="217.4531" y2="217.4531"/><rect fill="none" height="6" style="stroke: #C82930; stroke-width: 1.0;" width="6" x="1915.5" y="226.3555"/><text fill="#000000" font-family="sans-serif" font-size="11" lengthAdjust="spacingAndGlyphs" textLength="128" x="1927.5" y="231.6636">private IOTClient client</text><rect fill="none" height="6" style="stroke: #C82930; stroke-width: 1.0;" width="6" x="1915.5" y="239.1602"/><text fill="#000000" font-family="sans-serif" font-size="11" lengthAdjust="spacingAndGlyphs" textLength="215" x="1927.5" y="244.4683">private AlarmClockService alarmClock</text><rect fill="none" height="6" style="stroke: #C82930; stroke-width: 1.0;" width="6" x="1915.5" y="251.9648"/><text fill="#000000" font-family="sans-serif" font-size="11" lengthAdjust="spacingAndGlyphs" textLength="141" x="1927.5" y="257.2729">private IOTServer server</text><rect fill="none" height="6" style="stroke: #C82930; stroke-width: 1.0;" width="6" x="1915.5" y="264.7695"/><text fill="#000000" font-family="sans-serif" font-size="11" lengthAdjust="spacingAndGlyphs" textLength="233" x="1927.5" y="270.0776">private UDPListenerInterface udpListener</text><rect fill="none" height="6" style="stroke: #C82930; stroke-width: 1.0;" width="6" x="1915.5" y="277.5742"/><text fill="#000000" font-family="sans-serif" font-size="11" lengthAdjust="spacingAndGlyphs" textLength="291" x="1927.5" y="282.8823">private UDPBroadcastService udpBroadcastService</text><rect fill="none" height="6" style="stroke: #C82930; stroke-width: 1.0;" width="6" x="1915.5" y="290.3789"/><text fill="#000000" font-family="sans-serif" font-size="11" lengthAdjust="spacingAndGlyphs" textLength="210" x="1927.5" y="295.687">private SubscriberList subscriberList</text><ellipse cx="1918.5" cy="306.1836" fill="none" rx="3" ry="3" style="stroke: #038048; stroke-width: 1.0;"/><text fill="#000000" font-family="sans-serif" font-size="11" lengthAdjust="spacingAndGlyphs" text-decoration="underline" textLength="282" x="1927.5" y="308.4917">public static final int UDP_SERVICE_PORT = 29902</text><line style="stroke: #000000; stroke-width: 1.0;" x1="1927.5" x2="2209.5" y1="310.4917" y2="310.4917"/><line style="stroke: #A80036; stroke-width: 1.5;" x1="1908.5" x2="2223.5" y1="315.0859" y2="315.0859"/><ellipse cx="1918.5" cy="326.9883" fill="#84BE84" rx="3" ry="3" style="stroke: #038048; stroke-width: 1.0;"/><text fill="#000000" font-family="sans-serif" font-size="11" lengthAdjust="spacingAndGlyphs" textLength="108" x="1927.5" y="329.2964">public IOTRunner ()</text><!--class Subscriber--><rect fill="#FEFECE" filter="url(#fih512n)" height="112.0234" style="stroke: #A80036; stroke-width: 1.5;" width="291" x="941.5" y="2243.9531"/><ellipse cx="1049.25" cy="2259.9531" fill="#ADD1B2" rx="11" ry="11" style="stroke: #A80036; stroke-width: 1.0;"/><path d="M1051.5938,2255.625 L1051.7656,2255.7031 C1051.9844,2255.3906 1052.1875,2255.2969 1052.4844,2255.2969 C1052.7813,2255.2969 1053.0625,2255.4375 1053.2188,2255.7031 C1053.3125,2255.8594 1053.3281,2255.9844 1053.3281,2256.4219 L1053.3281,2257.8438 C1053.3281,2258.2656 1053.2969,2258.4531 1053.1875,2258.6094 C1053.0156,2258.8281 1052.75,2258.9688 1052.4844,2258.9688 C1052.2656,2258.9688 1052.0313,2258.8594 1051.8906,2258.7188 C1051.75,2258.5938 1051.7188,2258.4688 1051.6563,2258.0625 C1051.5625,2257.6563 1051.3906,2257.4375 1050.9063,2257.1563 C1050.4375,2256.9063 1049.8281,2256.75 1049.25,2256.75 C1047.5156,2256.75 1046.2656,2258.0625 1046.2656,2259.8438 L1046.2656,2260.9375 C1046.2656,2262.6406 1047.5625,2263.7344 1049.6094,2263.7344 C1050.375,2263.7344 1051.0625,2263.6094 1051.4844,2263.3438 C1051.6719,2263.25 1051.6719,2263.25 1052.125,2262.7656 C1052.3125,2262.5781 1052.5156,2262.5 1052.7344,2262.5 C1053.2031,2262.5 1053.5938,2262.8906 1053.5938,2263.3438 C1053.5938,2263.7344 1053.2656,2264.1875 1052.6875,2264.5938 C1051.9375,2265.1406 1050.7813,2265.4375 1049.5625,2265.4375 C1046.6719,2265.4375 1044.5625,2263.5469 1044.5625,2260.9688 L1044.5625,2259.8438 C1044.5625,2257.125 1046.5625,2255.0469 1049.1875,2255.0469 C1050.0625,2255.0469 1050.6563,2255.1875 1051.5938,2255.625 Z "/><text fill="#000000" font-family="sans-serif" font-size="12" lengthAdjust="spacingAndGlyphs" textLength="67" x="1069.75" y="2264.1074">Subscriber</text><line style="stroke: #A80036; stroke-width: 1.5;" x1="942.5" x2="1231.5" y1="2275.9531" y2="2275.9531"/><rect fill="none" height="6" style="stroke: #C82930; stroke-width: 1.0;" width="6" x="949.5" y="2284.8555"/><text fill="#000000" font-family="sans-serif" font-size="11" lengthAdjust="spacingAndGlyphs" textLength="166" x="961.5" y="2290.1636">final private String ipAddress</text><rect fill="none" height="6" style="stroke: #C82930; stroke-width: 1.0;" width="6" x="949.5" y="2297.6602"/><text fill="#000000" font-family="sans-serif" font-size="11" lengthAdjust="spacingAndGlyphs" textLength="112" x="961.5" y="2302.9683">final private int port</text><line style="stroke: #A80036; stroke-width: 1.5;" x1="942.5" x2="1231.5" y1="2309.5625" y2="2309.5625"/><ellipse cx="952.5" cy="2321.4648" fill="#84BE84" rx="3" ry="3" style="stroke: #038048; stroke-width: 1.0;"/><text fill="#000000" font-family="sans-serif" font-size="11" lengthAdjust="spacingAndGlyphs" textLength="265" x="961.5" y="2323.7729">public Subscriber(String pIpAddress, int pPort)</text><ellipse cx="952.5" cy="2334.2695" fill="#84BE84" rx="3" ry="3" style="stroke: #038048; stroke-width: 1.0;"/><text fill="#000000" font-family="sans-serif" font-size="11" lengthAdjust="spacingAndGlyphs" textLength="158" x="961.5" y="2336.5776">public String getIpAddress()</text><ellipse cx="952.5" cy="2347.0742" fill="#84BE84" rx="3" ry="3" style="stroke: #038048; stroke-width: 1.0;"/><text fill="#000000" font-family="sans-serif" font-size="11" lengthAdjust="spacingAndGlyphs" textLength="104" x="961.5" y="2349.3823">public int getPort()</text><!--class SubscriberList--><rect fill="#FEFECE" filter="url(#fih512n)" height="86.4141" style="stroke: #A80036; stroke-width: 1.5;" width="332" x="921" y="2096.9531"/><ellipse cx="1038.75" cy="2112.9531" fill="#ADD1B2" rx="11" ry="11" style="stroke: #A80036; stroke-width: 1.0;"/><path d="M1041.0938,2108.625 L1041.2656,2108.7031 C1041.4844,2108.3906 1041.6875,2108.2969 1041.9844,2108.2969 C1042.2813,2108.2969 1042.5625,2108.4375 1042.7188,2108.7031 C1042.8125,2108.8594 1042.8281,2108.9844 1042.8281,2109.4219 L1042.8281,2110.8438 C1042.8281,2111.2656 1042.7969,2111.4531 1042.6875,2111.6094 C1042.5156,2111.8281 1042.25,2111.9688 1041.9844,2111.9688 C1041.7656,2111.9688 1041.5313,2111.8594 1041.3906,2111.7188 C1041.25,2111.5938 1041.2188,2111.4688 1041.1563,2111.0625 C1041.0625,2110.6563 1040.8906,2110.4375 1040.4063,2110.1563 C1039.9375,2109.9063 1039.3281,2109.75 1038.75,2109.75 C1037.0156,2109.75 1035.7656,2111.0625 1035.7656,2112.8438 L1035.7656,2113.9375 C1035.7656,2115.6406 1037.0625,2116.7344 1039.1094,2116.7344 C1039.875,2116.7344 1040.5625,2116.6094 1040.9844,2116.3438 C1041.1719,2116.25 1041.1719,2116.25 1041.625,2115.7656 C1041.8125,2115.5781 1042.0156,2115.5 1042.2344,2115.5 C1042.7031,2115.5 1043.0938,2115.8906 1043.0938,2116.3438 C1043.0938,2116.7344 1042.7656,2117.1875 1042.1875,2117.5938 C1041.4375,2118.1406 1040.2813,2118.4375 1039.0625,2118.4375 C1036.1719,2118.4375 1034.0625,2116.5469 1034.0625,2113.9688 L1034.0625,2112.8438 C1034.0625,2110.125 1036.0625,2108.0469 1038.6875,2108.0469 C1039.5625,2108.0469 1040.1563,2108.1875 1041.0938,2108.625 Z "/><text fill="#000000" font-family="sans-serif" font-size="12" lengthAdjust="spacingAndGlyphs" textLength="88" x="1059.25" y="2117.1074">SubscriberList</text><line style="stroke: #A80036; stroke-width: 1.5;" x1="922" x2="1252" y1="2128.9531" y2="2128.9531"/><rect fill="none" height="6" style="stroke: #C82930; stroke-width: 1.0;" width="6" x="929" y="2137.8555"/><text fill="#000000" font-family="sans-serif" font-size="11" lengthAdjust="spacingAndGlyphs" textLength="194" x="941" y="2143.1636">private ArrayList&lt;Subscriber&gt; list</text><line style="stroke: #A80036; stroke-width: 1.5;" x1="922" x2="1252" y1="2149.7578" y2="2149.7578"/><ellipse cx="932" cy="2161.6602" fill="#84BE84" rx="3" ry="3" style="stroke: #038048; stroke-width: 1.0;"/><text fill="#000000" font-family="sans-serif" font-size="11" lengthAdjust="spacingAndGlyphs" textLength="306" x="941" y="2163.9683">public void addSubscriber(Subscriber newSubscriber)</text><ellipse cx="932" cy="2174.4648" fill="#84BE84" rx="3" ry="3" style="stroke: #038048; stroke-width: 1.0;"/><text fill="#000000" font-family="sans-serif" font-size="11" lengthAdjust="spacingAndGlyphs" textLength="266" x="941" y="2176.7729">public ArrayList&lt;Subscriber&gt; getSubscribers()</text><!--class IOTServerInterface--><rect fill="#FEFECE" filter="url(#fih512n)" height="86.4141" style="stroke: #A80036; stroke-width: 1.5;" width="467" x="2351.5" y="837.4531"/><ellipse cx="2522.75" cy="853.4531" fill="#B4A7E5" rx="11" ry="11" style="stroke: #A80036; stroke-width: 1.0;"/><path d="M2523.7031,850.2344 L2523.7031,856.75 L2525.4219,856.75 C2525.875,856.75 2526.0156,856.7813 2526.1875,856.9063 C2526.4219,857.0781 2526.5313,857.3281 2526.5313,857.6094 C2526.5313,858.1719 2526.1719,858.4531 2525.4219,858.4531 L2520.2813,858.4531 C2519.875,858.4531 2519.6719,858.4063 2519.5156,858.2813 C2519.2969,858.125 2519.1563,857.8594 2519.1563,857.6094 C2519.1563,857.3125 2519.3125,857.0313 2519.5625,856.875 C2519.7188,856.7656 2519.8438,856.75 2520.2813,856.75 L2522,856.75 L2522,850.2344 L2520.2813,850.2344 C2519.8594,850.2344 2519.6719,850.2031 2519.5156,850.0938 C2519.2969,849.9219 2519.1563,849.6719 2519.1563,849.3906 C2519.1563,849.1094 2519.3125,848.8125 2519.5625,848.6563 C2519.7188,848.5625 2519.8438,848.5469 2520.2813,848.5469 L2525.4219,848.5469 C2525.875,848.5469 2526.0156,848.5781 2526.1875,848.6875 C2526.4219,848.8594 2526.5313,849.125 2526.5313,849.3906 C2526.5313,849.6875 2526.3906,849.9688 2526.125,850.125 C2526,850.2031 2525.8125,850.2344 2525.4219,850.2344 Z "/><text fill="#000000" font-family="sans-serif" font-size="12" font-style="italic" lengthAdjust="spacingAndGlyphs" textLength="116" x="2543.25" y="857.6074">IOTServerInterface</text><line style="stroke: #A80036; stroke-width: 1.5;" x1="2352.5" x2="2817.5" y1="869.4531" y2="869.4531"/><line style="stroke: #A80036; stroke-width: 1.5;" x1="2352.5" x2="2817.5" y1="877.4531" y2="877.4531"/><ellipse cx="2362.5" cy="889.3555" fill="#84BE84" rx="3" ry="3" style="stroke: #038048; stroke-width: 1.0;"/><text fill="#000000" font-family="sans-serif" font-size="11" lengthAdjust="spacingAndGlyphs" textLength="430" x="2371.5" y="891.6636">public void receiveServiceOffering(InetAddress sourceAddress, String data)</text><ellipse cx="2362.5" cy="902.1602" fill="#84BE84" rx="3" ry="3" style="stroke: #038048; stroke-width: 1.0;"/><text fill="#000000" font-family="sans-serif" font-size="11" lengthAdjust="spacingAndGlyphs" textLength="441" x="2371.5" y="904.4683">public void subscribeRequestHandler(String destinationIP, int destinationPort)</text><ellipse cx="2362.5" cy="914.9648" fill="#84BE84" rx="3" ry="3" style="stroke: #038048; stroke-width: 1.0;"/><text fill="#000000" font-family="sans-serif" font-size="11" lengthAdjust="spacingAndGlyphs" textLength="357" x="2371.5" y="917.2729">public void incomingNotificationHandler(IOTMessage message)</text><!--class IOTServer--><rect fill="#FEFECE" filter="url(#fih512n)" height="99.2188" style="stroke: #A80036; stroke-width: 1.5;" width="652" x="2259" y="984.4531"/><ellipse cx="2551.25" cy="1000.4531" fill="#ADD1B2" rx="11" ry="11" style="stroke: #A80036; stroke-width: 1.0;"/><path d="M2553.5938,996.125 L2553.7656,996.2031 C2553.9844,995.8906 2554.1875,995.7969 2554.4844,995.7969 C2554.7813,995.7969 2555.0625,995.9375 2555.2188,996.2031 C2555.3125,996.3594 2555.3281,996.4844 2555.3281,996.9219 L2555.3281,998.3438 C2555.3281,998.7656 2555.2969,998.9531 2555.1875,999.1094 C2555.0156,999.3281 2554.75,999.4688 2554.4844,999.4688 C2554.2656,999.4688 2554.0313,999.3594 2553.8906,999.2188 C2553.75,999.0938 2553.7188,998.9688 2553.6563,998.5625 C2553.5625,998.1563 2553.3906,997.9375 2552.9063,997.6563 C2552.4375,997.4063 2551.8281,997.25 2551.25,997.25 C2549.5156,997.25 2548.2656,998.5625 2548.2656,1000.3438 L2548.2656,1001.4375 C2548.2656,1003.1406 2549.5625,1004.2344 2551.6094,1004.2344 C2552.375,1004.2344 2553.0625,1004.1094 2553.4844,1003.8438 C2553.6719,1003.75 2553.6719,1003.75 2554.125,1003.2656 C2554.3125,1003.0781 2554.5156,1003 2554.7344,1003 C2555.2031,1003 2555.5938,1003.3906 2555.5938,1003.8438 C2555.5938,1004.2344 2555.2656,1004.6875 2554.6875,1005.0938 C2553.9375,1005.6406 2552.7813,1005.9375 2551.5625,1005.9375 C2548.6719,1005.9375 2546.5625,1004.0469 2546.5625,1001.4688 L2546.5625,1000.3438 C2546.5625,997.625 2548.5625,995.5469 2551.1875,995.5469 C2552.0625,995.5469 2552.6563,995.6875 2553.5938,996.125 Z "/><text fill="#000000" font-family="sans-serif" font-size="12" lengthAdjust="spacingAndGlyphs" textLength="59" x="2571.75" y="1004.6074">IOTServer</text><line style="stroke: #A80036; stroke-width: 1.5;" x1="2260" x2="2910" y1="1016.4531" y2="1016.4531"/><rect fill="none" height="6" style="stroke: #C82930; stroke-width: 1.0;" width="6" x="2267" y="1025.3555"/><text fill="#000000" font-family="sans-serif" font-size="11" lengthAdjust="spacingAndGlyphs" textLength="197" x="2279" y="1030.6636">private SubscriberList subscribers</text><rect fill="none" height="6" style="stroke: #C82930; stroke-width: 1.0;" width="6" x="2267" y="1038.1602"/><text fill="#000000" font-family="sans-serif" font-size="11" lengthAdjust="spacingAndGlyphs" textLength="178" x="2279" y="1043.4683">private IOTClientInterface client</text><rect fill="none" height="6" style="stroke: #C82930; stroke-width: 1.0;" width="6" x="2267" y="1050.9648"/><text fill="#000000" font-family="sans-serif" font-size="11" lengthAdjust="spacingAndGlyphs" textLength="238" x="2279" y="1056.2729">private IOTApplicationInterface application</text><line style="stroke: #A80036; stroke-width: 1.5;" x1="2260" x2="2910" y1="1062.8672" y2="1062.8672"/><ellipse cx="2270" cy="1074.7695" fill="#84BE84" rx="3" ry="3" style="stroke: #038048; stroke-width: 1.0;"/><text fill="#000000" font-family="sans-serif" font-size="11" lengthAdjust="spacingAndGlyphs" textLength="626" x="2279" y="1077.0776">public IOTServer(SubscriberList pSubscribers, IOTClientInterface pClient, IOTApplicationInterface pApplication)</text><!--class HTTPServerConnector--><rect fill="#FEFECE" filter="url(#fih512n)" height="99.2188" style="stroke: #A80036; stroke-width: 1.5;" width="500" x="1865" y="643.4531"/><ellipse cx="2042.75" cy="659.4531" fill="#ADD1B2" rx="11" ry="11" style="stroke: #A80036; stroke-width: 1.0;"/><path d="M2045.0938,655.125 L2045.2656,655.2031 C2045.4844,654.8906 2045.6875,654.7969 2045.9844,654.7969 C2046.2813,654.7969 2046.5625,654.9375 2046.7188,655.2031 C2046.8125,655.3594 2046.8281,655.4844 2046.8281,655.9219 L2046.8281,657.3438 C2046.8281,657.7656 2046.7969,657.9531 2046.6875,658.1094 C2046.5156,658.3281 2046.25,658.4688 2045.9844,658.4688 C2045.7656,658.4688 2045.5313,658.3594 2045.3906,658.2188 C2045.25,658.0938 2045.2188,657.9688 2045.1563,657.5625 C2045.0625,657.1563 2044.8906,656.9375 2044.4063,656.6563 C2043.9375,656.4063 2043.3281,656.25 2042.75,656.25 C2041.0156,656.25 2039.7656,657.5625 2039.7656,659.3438 L2039.7656,660.4375 C2039.7656,662.1406 2041.0625,663.2344 2043.1094,663.2344 C2043.875,663.2344 2044.5625,663.1094 2044.9844,662.8438 C2045.1719,662.75 2045.1719,662.75 2045.625,662.2656 C2045.8125,662.0781 2046.0156,662 2046.2344,662 C2046.7031,662 2047.0938,662.3906 2047.0938,662.8438 C2047.0938,663.2344 2046.7656,663.6875 2046.1875,664.0938 C2045.4375,664.6406 2044.2813,664.9375 2043.0625,664.9375 C2040.1719,664.9375 2038.0625,663.0469 2038.0625,660.4688 L2038.0625,659.3438 C2038.0625,656.625 2040.0625,654.5469 2042.6875,654.5469 C2043.5625,654.5469 2044.1563,654.6875 2045.0938,655.125 Z "/><text fill="#000000" font-family="sans-serif" font-size="12" lengthAdjust="spacingAndGlyphs" textLength="136" x="2063.25" y="663.6074">HTTPServerConnector</text><line style="stroke: #A80036; stroke-width: 1.5;" x1="1866" x2="2364" y1="675.4531" y2="675.4531"/><rect fill="none" height="6" style="stroke: #C82930; stroke-width: 1.0;" width="6" x="1873" y="684.3555"/><text fill="#000000" font-family="sans-serif" font-size="11" lengthAdjust="spacingAndGlyphs" textLength="191" x="1885" y="689.6636">private IOTServerInterface server</text><line style="stroke: #A80036; stroke-width: 1.5;" x1="1866" x2="2364" y1="696.2578" y2="696.2578"/><ellipse cx="1876" cy="708.1602" fill="#84BE84" rx="3" ry="3" style="stroke: #038048; stroke-width: 1.0;"/><text fill="#000000" font-family="sans-serif" font-size="11" lengthAdjust="spacingAndGlyphs" textLength="326" x="1885" y="710.4683">public HTTPServerConnector(IOTServerInterface pServer)</text><polygon fill="#FFFF44" points="1876,715.9648,1880,719.9648,1876,723.9648,1872,719.9648" style="stroke: #B38D22; stroke-width: 1.0;"/><text fill="#000000" font-family="sans-serif" font-size="11" lengthAdjust="spacingAndGlyphs" textLength="469" x="1885" y="723.2729">protected void doGet(HttpServletRequest request, HttpServletResponse response)</text><polygon fill="#FFFF44" points="1876,728.7695,1880,732.7695,1876,736.7695,1872,732.7695" style="stroke: #B38D22; stroke-width: 1.0;"/><text fill="#000000" font-family="sans-serif" font-size="11" lengthAdjust="spacingAndGlyphs" textLength="474" x="1885" y="736.0776">protected void doPost(HttpServletRequest request, HttpServletResponse response)</text><!--class UDPListenerInterface--><rect fill="#FEFECE" filter="url(#fih512n)" height="73.6094" style="stroke: #A80036; stroke-width: 1.5;" width="164" x="2490" y="476.4531"/><ellipse cx="2505" cy="492.4531" fill="#B4A7E5" rx="11" ry="11" style="stroke: #A80036; stroke-width: 1.0;"/><path d="M2505.9531,489.2344 L2505.9531,495.75 L2507.6719,495.75 C2508.125,495.75 2508.2656,495.7813 2508.4375,495.9063 C2508.6719,496.0781 2508.7813,496.3281 2508.7813,496.6094 C2508.7813,497.1719 2508.4219,497.4531 2507.6719,497.4531 L2502.5313,497.4531 C2502.125,497.4531 2501.9219,497.4063 2501.7656,497.2813 C2501.5469,497.125 2501.4063,496.8594 2501.4063,496.6094 C2501.4063,496.3125 2501.5625,496.0313 2501.8125,495.875 C2501.9688,495.7656 2502.0938,495.75 2502.5313,495.75 L2504.25,495.75 L2504.25,489.2344 L2502.5313,489.2344 C2502.1094,489.2344 2501.9219,489.2031 2501.7656,489.0938 C2501.5469,488.9219 2501.4063,488.6719 2501.4063,488.3906 C2501.4063,488.1094 2501.5625,487.8125 2501.8125,487.6563 C2501.9688,487.5625 2502.0938,487.5469 2502.5313,487.5469 L2507.6719,487.5469 C2508.125,487.5469 2508.2656,487.5781 2508.4375,487.6875 C2508.6719,487.8594 2508.7813,488.125 2508.7813,488.3906 C2508.7813,488.6875 2508.6406,488.9688 2508.375,489.125 C2508.25,489.2031 2508.0625,489.2344 2507.6719,489.2344 Z "/><text fill="#000000" font-family="sans-serif" font-size="12" font-style="italic" lengthAdjust="spacingAndGlyphs" textLength="132" x="2519" y="496.6074">UDPListenerInterface</text><line style="stroke: #A80036; stroke-width: 1.5;" x1="2491" x2="2653" y1="508.4531" y2="508.4531"/><line style="stroke: #A80036; stroke-width: 1.5;" x1="2491" x2="2653" y1="516.4531" y2="516.4531"/><ellipse cx="2501" cy="528.3555" fill="#84BE84" rx="3" ry="3" style="stroke: #038048; stroke-width: 1.0;"/><text fill="#000000" font-family="sans-serif" font-size="11" lengthAdjust="spacingAndGlyphs" textLength="91" x="2510" y="530.6636">public void run()</text><ellipse cx="2501" cy="541.1602" fill="#84BE84" rx="3" ry="3" style="stroke: #038048; stroke-width: 1.0;"/><text fill="#000000" font-family="sans-serif" font-size="11" lengthAdjust="spacingAndGlyphs" textLength="127" x="2510" y="543.4683">public void terminate()</text><!--class UDPListener--><rect fill="#FEFECE" filter="url(#fih512n)" height="163.2422" style="stroke: #A80036; stroke-width: 1.5;" width="526" x="2400" y="611.4531"/><ellipse cx="2620.75" cy="627.4531" fill="#ADD1B2" rx="11" ry="11" style="stroke: #A80036; stroke-width: 1.0;"/><path d="M2623.0938,623.125 L2623.2656,623.2031 C2623.4844,622.8906 2623.6875,622.7969 2623.9844,622.7969 C2624.2813,622.7969 2624.5625,622.9375 2624.7188,623.2031 C2624.8125,623.3594 2624.8281,623.4844 2624.8281,623.9219 L2624.8281,625.3438 C2624.8281,625.7656 2624.7969,625.9531 2624.6875,626.1094 C2624.5156,626.3281 2624.25,626.4688 2623.9844,626.4688 C2623.7656,626.4688 2623.5313,626.3594 2623.3906,626.2188 C2623.25,626.0938 2623.2188,625.9688 2623.1563,625.5625 C2623.0625,625.1563 2622.8906,624.9375 2622.4063,624.6563 C2621.9375,624.4063 2621.3281,624.25 2620.75,624.25 C2619.0156,624.25 2617.7656,625.5625 2617.7656,627.3438 L2617.7656,628.4375 C2617.7656,630.1406 2619.0625,631.2344 2621.1094,631.2344 C2621.875,631.2344 2622.5625,631.1094 2622.9844,630.8438 C2623.1719,630.75 2623.1719,630.75 2623.625,630.2656 C2623.8125,630.0781 2624.0156,630 2624.2344,630 C2624.7031,630 2625.0938,630.3906 2625.0938,630.8438 C2625.0938,631.2344 2624.7656,631.6875 2624.1875,632.0938 C2623.4375,632.6406 2622.2813,632.9375 2621.0625,632.9375 C2618.1719,632.9375 2616.0625,631.0469 2616.0625,628.4688 L2616.0625,627.3438 C2616.0625,624.625 2618.0625,622.5469 2620.6875,622.5469 C2621.5625,622.5469 2622.1563,622.6875 2623.0938,623.125 Z "/><text fill="#000000" font-family="sans-serif" font-size="12" lengthAdjust="spacingAndGlyphs" textLength="76" x="2641.25" y="631.6074">UDPListener</text><line style="stroke: #A80036; stroke-width: 1.5;" x1="2401" x2="2925" y1="643.4531" y2="643.4531"/><rect fill="none" height="6" style="stroke: #C82930; stroke-width: 1.0;" width="6" x="2408" y="652.3555"/><text fill="#000000" font-family="sans-serif" font-size="11" lengthAdjust="spacingAndGlyphs" textLength="110" x="2420" y="657.6636">private Integer port</text><rect fill="none" height="6" style="stroke: #C82930; stroke-width: 1.0;" width="6" x="2408" y="665.1602"/><text fill="#000000" font-family="sans-serif" font-size="11" lengthAdjust="spacingAndGlyphs" textLength="178" x="2420" y="670.4683">private DatagramSocket socket</text><rect fill="none" height="6" style="stroke: #C82930; stroke-width: 1.0;" width="6" x="2408" y="677.9648"/><text fill="#000000" font-family="sans-serif" font-size="11" lengthAdjust="spacingAndGlyphs" textLength="136" x="2420" y="683.2729">private Boolean running</text><rect fill="none" height="6" style="stroke: #C82930; stroke-width: 1.0;" width="6" x="2408" y="690.7695"/><text fill="#000000" font-family="sans-serif" font-size="11" lengthAdjust="spacingAndGlyphs" textLength="238" x="2420" y="696.0776">private IOTServerInterface receiverServer</text><line style="stroke: #A80036; stroke-width: 1.5;" x1="2401" x2="2925" y1="702.6719" y2="702.6719"/><ellipse cx="2411" cy="714.5742" fill="#84BE84" rx="3" ry="3" style="stroke: #038048; stroke-width: 1.0;"/><text fill="#000000" font-family="sans-serif" font-size="11" lengthAdjust="spacingAndGlyphs" textLength="500" x="2420" y="716.8823">public UDPListener (@NotNull Integer port, @NotNull IOTServerInterface receiverServer)</text><ellipse cx="2411" cy="727.3789" fill="#84BE84" rx="3" ry="3" style="stroke: #038048; stroke-width: 1.0;"/><text fill="#000000" font-family="sans-serif" font-size="11" lengthAdjust="spacingAndGlyphs" textLength="130" x="2420" y="729.687">public Integer getPort()</text><ellipse cx="2411" cy="740.1836" fill="#84BE84" rx="3" ry="3" style="stroke: #038048; stroke-width: 1.0;"/><text fill="#000000" font-family="sans-serif" font-size="11" lengthAdjust="spacingAndGlyphs" textLength="149" x="2420" y="742.4917">public boolean isRunning()</text><ellipse cx="2411" cy="752.9883" fill="#84BE84" rx="3" ry="3" style="stroke: #038048; stroke-width: 1.0;"/><text fill="#000000" font-family="sans-serif" font-size="11" lengthAdjust="spacingAndGlyphs" textLength="128" x="2420" y="755.2964">public String toString()</text><ellipse cx="2411" cy="765.793" fill="#84BE84" rx="3" ry="3" style="stroke: #038048; stroke-width: 1.0;"/><text fill="#000000" font-family="sans-serif" font-size="11" lengthAdjust="spacingAndGlyphs" text-decoration="underline" textLength="207" x="2420" y="768.1011">public static void main(String[] args)</text><line style="stroke: #000000; stroke-width: 1.0;" x1="2420" x2="2627" y1="770.1011" y2="770.1011"/><!--class IOTClientInterface--><rect fill="#FEFECE" filter="url(#fih512n)" height="73.6094" style="stroke: #A80036; stroke-width: 1.5;" width="474" x="854" y="1582.4531"/><ellipse cx="1031.25" cy="1598.4531" fill="#B4A7E5" rx="11" ry="11" style="stroke: #A80036; stroke-width: 1.0;"/><path d="M1032.2031,1595.2344 L1032.2031,1601.75 L1033.9219,1601.75 C1034.375,1601.75 1034.5156,1601.7813 1034.6875,1601.9063 C1034.9219,1602.0781 1035.0313,1602.3281 1035.0313,1602.6094 C1035.0313,1603.1719 1034.6719,1603.4531 1033.9219,1603.4531 L1028.7813,1603.4531 C1028.375,1603.4531 1028.1719,1603.4063 1028.0156,1603.2813 C1027.7969,1603.125 1027.6563,1602.8594 1027.6563,1602.6094 C1027.6563,1602.3125 1027.8125,1602.0313 1028.0625,1601.875 C1028.2188,1601.7656 1028.3438,1601.75 1028.7813,1601.75 L1030.5,1601.75 L1030.5,1595.2344 L1028.7813,1595.2344 C1028.3594,1595.2344 1028.1719,1595.2031 1028.0156,1595.0938 C1027.7969,1594.9219 1027.6563,1594.6719 1027.6563,1594.3906 C1027.6563,1594.1094 1027.8125,1593.8125 1028.0625,1593.6563 C1028.2188,1593.5625 1028.3438,1593.5469 1028.7813,1593.5469 L1033.9219,1593.5469 C1034.375,1593.5469 1034.5156,1593.5781 1034.6875,1593.6875 C1034.9219,1593.8594 1035.0313,1594.125 1035.0313,1594.3906 C1035.0313,1594.6875 1034.8906,1594.9688 1034.625,1595.125 C1034.5,1595.2031 1034.3125,1595.2344 1033.9219,1595.2344 Z "/><text fill="#000000" font-family="sans-serif" font-size="12" font-style="italic" lengthAdjust="spacingAndGlyphs" textLength="111" x="1051.75" y="1602.6074">IOTClientInterface</text><line style="stroke: #A80036; stroke-width: 1.5;" x1="855" x2="1327" y1="1614.4531" y2="1614.4531"/><line style="stroke: #A80036; stroke-width: 1.5;" x1="855" x2="1327" y1="1622.4531" y2="1622.4531"/><ellipse cx="865" cy="1634.3555" fill="#84BE84" rx="3" ry="3" style="stroke: #038048; stroke-width: 1.0;"/><text fill="#000000" font-family="sans-serif" font-size="11" lengthAdjust="spacingAndGlyphs" textLength="299" x="874" y="1636.6636">public void notifySubscribers(IOTMessage message)</text><ellipse cx="865" cy="1647.1602" fill="#84BE84" rx="3" ry="3" style="stroke: #038048; stroke-width: 1.0;"/><text fill="#000000" font-family="sans-serif" font-size="11" lengthAdjust="spacingAndGlyphs" textLength="448" x="874" y="1649.4683">public void createSubscriptionRequest(String destinationIP, int destinationPort)</text><!--class IOTClient--><rect fill="#FEFECE" filter="url(#fih512n)" height="137.6328" style="stroke: #A80036; stroke-width: 1.5;" width="476" x="849" y="1849.9531"/><ellipse cx="1055.75" cy="1865.9531" fill="#ADD1B2" rx="11" ry="11" style="stroke: #A80036; stroke-width: 1.0;"/><path d="M1058.0938,1861.625 L1058.2656,1861.7031 C1058.4844,1861.3906 1058.6875,1861.2969 1058.9844,1861.2969 C1059.2813,1861.2969 1059.5625,1861.4375 1059.7188,1861.7031 C1059.8125,1861.8594 1059.8281,1861.9844 1059.8281,1862.4219 L1059.8281,1863.8438 C1059.8281,1864.2656 1059.7969,1864.4531 1059.6875,1864.6094 C1059.5156,1864.8281 1059.25,1864.9688 1058.9844,1864.9688 C1058.7656,1864.9688 1058.5313,1864.8594 1058.3906,1864.7188 C1058.25,1864.5938 1058.2188,1864.4688 1058.1563,1864.0625 C1058.0625,1863.6563 1057.8906,1863.4375 1057.4063,1863.1563 C1056.9375,1862.9063 1056.3281,1862.75 1055.75,1862.75 C1054.0156,1862.75 1052.7656,1864.0625 1052.7656,1865.8438 L1052.7656,1866.9375 C1052.7656,1868.6406 1054.0625,1869.7344 1056.1094,1869.7344 C1056.875,1869.7344 1057.5625,1869.6094 1057.9844,1869.3438 C1058.1719,1869.25 1058.1719,1869.25 1058.625,1868.7656 C1058.8125,1868.5781 1059.0156,1868.5 1059.2344,1868.5 C1059.7031,1868.5 1060.0938,1868.8906 1060.0938,1869.3438 C1060.0938,1869.7344 1059.7656,1870.1875 1059.1875,1870.5938 C1058.4375,1871.1406 1057.2813,1871.4375 1056.0625,1871.4375 C1053.1719,1871.4375 1051.0625,1869.5469 1051.0625,1866.9688 L1051.0625,1865.8438 C1051.0625,1863.125 1053.0625,1861.0469 1055.6875,1861.0469 C1056.5625,1861.0469 1057.1563,1861.1875 1058.0938,1861.625 Z "/><text fill="#000000" font-family="sans-serif" font-size="12" lengthAdjust="spacingAndGlyphs" textLength="54" x="1076.25" y="1870.1074">IOTClient</text><line style="stroke: #A80036; stroke-width: 1.5;" x1="850" x2="1324" y1="1881.9531" y2="1881.9531"/><rect fill="none" height="6" style="stroke: #C82930; stroke-width: 1.0;" width="6" x="857" y="1890.8555"/><text fill="#000000" font-family="sans-serif" font-size="11" lengthAdjust="spacingAndGlyphs" textLength="197" x="869" y="1896.1636">private SubscriberList subscribers</text><rect fill="none" height="6" style="stroke: #C82930; stroke-width: 1.0;" width="6" x="857" y="1903.6602"/><text fill="#000000" font-family="sans-serif" font-size="11" lengthAdjust="spacingAndGlyphs" textLength="186" x="869" y="1908.9683">private String serviceDescription</text><line style="stroke: #A80036; stroke-width: 1.5;" x1="850" x2="1324" y1="1915.5625" y2="1915.5625"/><ellipse cx="860" cy="1927.4648" fill="#84BE84" rx="3" ry="3" style="stroke: #038048; stroke-width: 1.0;"/><text fill="#000000" font-family="sans-serif" font-size="11" lengthAdjust="spacingAndGlyphs" textLength="450" x="869" y="1929.7729">public public IOTClient (SubscriberList pSubscribers, String serviceDescription)</text><rect fill="#F24D5C" height="6" style="stroke: #C82930; stroke-width: 1.0;" width="6" x="857" y="1937.2695"/><text fill="#000000" font-family="sans-serif" font-size="11" lengthAdjust="spacingAndGlyphs" textLength="289" x="869" y="1942.5776">private String createUrl(String ipAddress,  int port)</text><ellipse cx="860" cy="1953.0742" fill="#84BE84" rx="3" ry="3" style="stroke: #038048; stroke-width: 1.0;"/><text fill="#000000" font-family="sans-serif" font-size="11" lengthAdjust="spacingAndGlyphs" textLength="290" x="869" y="1955.3823">public void createNewPostRequest(String urlString)</text><ellipse cx="860" cy="1965.8789" fill="#84BE84" rx="3" ry="3" style="stroke: #038048; stroke-width: 1.0;"/><text fill="#000000" font-family="sans-serif" font-size="11" lengthAdjust="spacingAndGlyphs" textLength="207" x="869" y="1968.187">public String getServiceDescription()</text><ellipse cx="860" cy="1978.6836" fill="#84BE84" rx="3" ry="3" style="stroke: #038048; stroke-width: 1.0;"/><text fill="#000000" font-family="sans-serif" font-size="11" lengthAdjust="spacingAndGlyphs" textLength="339" x="869" y="1980.9917">public void setServiceDescription(String serviceDescription)</text><!--class UDPBroadcastServiceInterface--><rect fill="#FEFECE" filter="url(#fih512n)" height="73.6094" style="stroke: #A80036; stroke-width: 1.5;" width="222" x="1438" y="1582.4531"/><ellipse cx="1453" cy="1598.4531" fill="#B4A7E5" rx="11" ry="11" style="stroke: #A80036; stroke-width: 1.0;"/><path d="M1453.9531,1595.2344 L1453.9531,1601.75 L1455.6719,1601.75 C1456.125,1601.75 1456.2656,1601.7813 1456.4375,1601.9063 C1456.6719,1602.0781 1456.7813,1602.3281 1456.7813,1602.6094 C1456.7813,1603.1719 1456.4219,1603.4531 1455.6719,1603.4531 L1450.5313,1603.4531 C1450.125,1603.4531 1449.9219,1603.4063 1449.7656,1603.2813 C1449.5469,1603.125 1449.4063,1602.8594 1449.4063,1602.6094 C1449.4063,1602.3125 1449.5625,1602.0313 1449.8125,1601.875 C1449.9688,1601.7656 1450.0938,1601.75 1450.5313,1601.75 L1452.25,1601.75 L1452.25,1595.2344 L1450.5313,1595.2344 C1450.1094,1595.2344 1449.9219,1595.2031 1449.7656,1595.0938 C1449.5469,1594.9219 1449.4063,1594.6719 1449.4063,1594.3906 C1449.4063,1594.1094 1449.5625,1593.8125 1449.8125,1593.6563 C1449.9688,1593.5625 1450.0938,1593.5469 1450.5313,1593.5469 L1455.6719,1593.5469 C1456.125,1593.5469 1456.2656,1593.5781 1456.4375,1593.6875 C1456.6719,1593.8594 1456.7813,1594.125 1456.7813,1594.3906 C1456.7813,1594.6875 1456.6406,1594.9688 1456.375,1595.125 C1456.25,1595.2031 1456.0625,1595.2344 1455.6719,1595.2344 Z "/><text fill="#000000" font-family="sans-serif" font-size="12" font-style="italic" lengthAdjust="spacingAndGlyphs" textLength="190" x="1467" y="1602.6074">UDPBroadcastServiceInterface</text><line style="stroke: #A80036; stroke-width: 1.5;" x1="1439" x2="1659" y1="1614.4531" y2="1614.4531"/><line style="stroke: #A80036; stroke-width: 1.5;" x1="1439" x2="1659" y1="1622.4531" y2="1622.4531"/><ellipse cx="1449" cy="1634.3555" fill="#84BE84" rx="3" ry="3" style="stroke: #038048; stroke-width: 1.0;"/><text fill="#000000" font-family="sans-serif" font-size="11" lengthAdjust="spacingAndGlyphs" textLength="91" x="1458" y="1636.6636">public void run()</text><ellipse cx="1449" cy="1647.1602" fill="#84BE84" rx="3" ry="3" style="stroke: #038048; stroke-width: 1.0;"/><text fill="#000000" font-family="sans-serif" font-size="11" lengthAdjust="spacingAndGlyphs" textLength="127" x="1458" y="1649.4683">public void terminate()</text><!--class UDPBroadcastService--><rect fill="#FEFECE" filter="url(#fih512n)" height="150.4375" style="stroke: #A80036; stroke-width: 1.5;" width="377" x="1360.5" y="1843.9531"/><ellipse cx="1477.25" cy="1859.9531" fill="#ADD1B2" rx="11" ry="11" style="stroke: #A80036; stroke-width: 1.0;"/><path d="M1479.5938,1855.625 L1479.7656,1855.7031 C1479.9844,1855.3906 1480.1875,1855.2969 1480.4844,1855.2969 C1480.7813,1855.2969 1481.0625,1855.4375 1481.2188,1855.7031 C1481.3125,1855.8594 1481.3281,1855.9844 1481.3281,1856.4219 L1481.3281,1857.8438 C1481.3281,1858.2656 1481.2969,1858.4531 1481.1875,1858.6094 C1481.0156,1858.8281 1480.75,1858.9688 1480.4844,1858.9688 C1480.2656,1858.9688 1480.0313,1858.8594 1479.8906,1858.7188 C1479.75,1858.5938 1479.7188,1858.4688 1479.6563,1858.0625 C1479.5625,1857.6563 1479.3906,1857.4375 1478.9063,1857.1563 C1478.4375,1856.9063 1477.8281,1856.75 1477.25,1856.75 C1475.5156,1856.75 1474.2656,1858.0625 1474.2656,1859.8438 L1474.2656,1860.9375 C1474.2656,1862.6406 1475.5625,1863.7344 1477.6094,1863.7344 C1478.375,1863.7344 1479.0625,1863.6094 1479.4844,1863.3438 C1479.6719,1863.25 1479.6719,1863.25 1480.125,1862.7656 C1480.3125,1862.5781 1480.5156,1862.5 1480.7344,1862.5 C1481.2031,1862.5 1481.5938,1862.8906 1481.5938,1863.3438 C1481.5938,1863.7344 1481.2656,1864.1875 1480.6875,1864.5938 C1479.9375,1865.1406 1478.7813,1865.4375 1477.5625,1865.4375 C1474.6719,1865.4375 1472.5625,1863.5469 1472.5625,1860.9688 L1472.5625,1859.8438 C1472.5625,1857.125 1474.5625,1855.0469 1477.1875,1855.0469 C1478.0625,1855.0469 1478.6563,1855.1875 1479.5938,1855.625 Z "/><text fill="#000000" font-family="sans-serif" font-size="12" lengthAdjust="spacingAndGlyphs" textLength="135" x="1497.75" y="1864.1074">UDPBroadcastService</text><line style="stroke: #A80036; stroke-width: 1.5;" x1="1361.5" x2="1736.5" y1="1875.9531" y2="1875.9531"/><ellipse cx="1371.5" cy="1887.8555" fill="none" rx="3" ry="3" style="stroke: #038048; stroke-width: 1.0;"/><text fill="#000000" font-family="sans-serif" font-size="11" lengthAdjust="spacingAndGlyphs" text-decoration="underline" textLength="351" x="1380.5" y="1890.1636">public static final int BROADCAST_MESSAGE_INTERVAL = 1000</text><line style="stroke: #000000; stroke-width: 1.0;" x1="1380.5" x2="1731.5" y1="1892.1636" y2="1892.1636"/><rect fill="none" height="6" style="stroke: #C82930; stroke-width: 1.0;" width="6" x="1368.5" y="1897.6602"/><text fill="#000000" font-family="sans-serif" font-size="11" lengthAdjust="spacingAndGlyphs" textLength="110" x="1380.5" y="1902.9683">private Integer port</text><rect fill="none" height="6" style="stroke: #C82930; stroke-width: 1.0;" width="6" x="1368.5" y="1910.4648"/><text fill="#000000" font-family="sans-serif" font-size="11" lengthAdjust="spacingAndGlyphs" textLength="136" x="1380.5" y="1915.7729">private Boolean running</text><rect fill="none" height="6" style="stroke: #C82930; stroke-width: 1.0;" width="6" x="1368.5" y="1923.2695"/><text fill="#000000" font-family="sans-serif" font-size="11" lengthAdjust="spacingAndGlyphs" textLength="178" x="1380.5" y="1928.5776">private DatagramSocket socket</text><rect fill="none" height="6" style="stroke: #C82930; stroke-width: 1.0;" width="6" x="1368.5" y="1936.0742"/><text fill="#000000" font-family="sans-serif" font-size="11" lengthAdjust="spacingAndGlyphs" textLength="134" x="1380.5" y="1941.3823">private String message</text><line style="stroke: #A80036; stroke-width: 1.5;" x1="1361.5" x2="1736.5" y1="1947.9766" y2="1947.9766"/><ellipse cx="1371.5" cy="1959.8789" fill="#84BE84" rx="3" ry="3" style="stroke: #038048; stroke-width: 1.0;"/><text fill="#000000" font-family="sans-serif" font-size="11" lengthAdjust="spacingAndGlyphs" textLength="338" x="1380.5" y="1962.187">public UDPBroadcastService (Integer port, String message)</text><ellipse cx="1371.5" cy="1972.6836" fill="#84BE84" rx="3" ry="3" style="stroke: #038048; stroke-width: 1.0;"/><text fill="#000000" font-family="sans-serif" font-size="11" lengthAdjust="spacingAndGlyphs" textLength="128" x="1380.5" y="1974.9917">public String toString()</text><ellipse cx="1371.5" cy="1985.4883" fill="#84BE84" rx="3" ry="3" style="stroke: #038048; stroke-width: 1.0;"/><text fill="#000000" font-family="sans-serif" font-size="11" lengthAdjust="spacingAndGlyphs" text-decoration="underline" textLength="207" x="1380.5" y="1987.7964">public static void main(String[] args)</text><line style="stroke: #000000; stroke-width: 1.0;" x1="1380.5" x2="1587.5" y1="1989.7964" y2="1989.7964"/><!--class IOTApplicationInterface--><rect fill="#FEFECE" filter="url(#fih512n)" height="86.4141" style="stroke: #A80036; stroke-width: 1.5;" width="377" x="2367.5" y="1268.4531"/><ellipse cx="2479.75" cy="1284.4531" fill="#ADD1B2" rx="11" ry="11" style="stroke: #A80036; stroke-width: 1.0;"/><path d="M2482.0938,1280.125 L2482.2656,1280.2031 C2482.4844,1279.8906 2482.6875,1279.7969 2482.9844,1279.7969 C2483.2813,1279.7969 2483.5625,1279.9375 2483.7188,1280.2031 C2483.8125,1280.3594 2483.8281,1280.4844 2483.8281,1280.9219 L2483.8281,1282.3438 C2483.8281,1282.7656 2483.7969,1282.9531 2483.6875,1283.1094 C2483.5156,1283.3281 2483.25,1283.4688 2482.9844,1283.4688 C2482.7656,1283.4688 2482.5313,1283.3594 2482.3906,1283.2188 C2482.25,1283.0938 2482.2188,1282.9688 2482.1563,1282.5625 C2482.0625,1282.1563 2481.8906,1281.9375 2481.4063,1281.6563 C2480.9375,1281.4063 2480.3281,1281.25 2479.75,1281.25 C2478.0156,1281.25 2476.7656,1282.5625 2476.7656,1284.3438 L2476.7656,1285.4375 C2476.7656,1287.1406 2478.0625,1288.2344 2480.1094,1288.2344 C2480.875,1288.2344 2481.5625,1288.1094 2481.9844,1287.8438 C2482.1719,1287.75 2482.1719,1287.75 2482.625,1287.2656 C2482.8125,1287.0781 2483.0156,1287 2483.2344,1287 C2483.7031,1287 2484.0938,1287.3906 2484.0938,1287.8438 C2484.0938,1288.2344 2483.7656,1288.6875 2483.1875,1289.0938 C2482.4375,1289.6406 2481.2813,1289.9375 2480.0625,1289.9375 C2477.1719,1289.9375 2475.0625,1288.0469 2475.0625,1285.4688 L2475.0625,1284.3438 C2475.0625,1281.625 2477.0625,1279.5469 2479.6875,1279.5469 C2480.5625,1279.5469 2481.1563,1279.6875 2482.0938,1280.125 Z "/><text fill="#000000" font-family="sans-serif" font-size="12" lengthAdjust="spacingAndGlyphs" textLength="144" x="2500.25" y="1288.6074">IOTApplicationInterface</text><line style="stroke: #A80036; stroke-width: 1.5;" x1="2368.5" x2="2743.5" y1="1300.4531" y2="1300.4531"/><line style="stroke: #A80036; stroke-width: 1.5;" x1="2368.5" x2="2743.5" y1="1308.4531" y2="1308.4531"/><ellipse cx="2378.5" cy="1320.3555" fill="#84BE84" rx="3" ry="3" style="stroke: #038048; stroke-width: 1.0;"/><text fill="#000000" font-family="sans-serif" font-size="11" lengthAdjust="spacingAndGlyphs" textLength="351" x="2387.5" y="1322.6636">public void handleIncomingNotification(IOTMessage message)</text><ellipse cx="2378.5" cy="1333.1602" fill="#84BE84" rx="3" ry="3" style="stroke: #038048; stroke-width: 1.0;"/><text fill="#000000" font-family="sans-serif" font-size="11" lengthAdjust="spacingAndGlyphs" textLength="207" x="2387.5" y="1335.4683">public String getServiceDescription()</text><ellipse cx="2378.5" cy="1345.9648" fill="#84BE84" rx="3" ry="3" style="stroke: #038048; stroke-width: 1.0;"/><text fill="#000000" font-family="sans-serif" font-size="11" lengthAdjust="spacingAndGlyphs" textLength="257" x="2387.5" y="1348.2729">public boolean isInterested(String broadcast)</text><!--class IOTMessage--><rect fill="#FEFECE" filter="url(#fih512n)" height="124.8281" style="stroke: #A80036; stroke-width: 1.5;" width="400" x="1865" y="1856.4531"/><ellipse cx="2023.25" cy="1872.4531" fill="#ADD1B2" rx="11" ry="11" style="stroke: #A80036; stroke-width: 1.0;"/><path d="M2025.5938,1868.125 L2025.7656,1868.2031 C2025.9844,1867.8906 2026.1875,1867.7969 2026.4844,1867.7969 C2026.7813,1867.7969 2027.0625,1867.9375 2027.2188,1868.2031 C2027.3125,1868.3594 2027.3281,1868.4844 2027.3281,1868.9219 L2027.3281,1870.3438 C2027.3281,1870.7656 2027.2969,1870.9531 2027.1875,1871.1094 C2027.0156,1871.3281 2026.75,1871.4688 2026.4844,1871.4688 C2026.2656,1871.4688 2026.0313,1871.3594 2025.8906,1871.2188 C2025.75,1871.0938 2025.7188,1870.9688 2025.6563,1870.5625 C2025.5625,1870.1563 2025.3906,1869.9375 2024.9063,1869.6563 C2024.4375,1869.4063 2023.8281,1869.25 2023.25,1869.25 C2021.5156,1869.25 2020.2656,1870.5625 2020.2656,1872.3438 L2020.2656,1873.4375 C2020.2656,1875.1406 2021.5625,1876.2344 2023.6094,1876.2344 C2024.375,1876.2344 2025.0625,1876.1094 2025.4844,1875.8438 C2025.6719,1875.75 2025.6719,1875.75 2026.125,1875.2656 C2026.3125,1875.0781 2026.5156,1875 2026.7344,1875 C2027.2031,1875 2027.5938,1875.3906 2027.5938,1875.8438 C2027.5938,1876.2344 2027.2656,1876.6875 2026.6875,1877.0938 C2025.9375,1877.6406 2024.7813,1877.9375 2023.5625,1877.9375 C2020.6719,1877.9375 2018.5625,1876.0469 2018.5625,1873.4688 L2018.5625,1872.3438 C2018.5625,1869.625 2020.5625,1867.5469 2023.1875,1867.5469 C2024.0625,1867.5469 2024.6563,1867.6875 2025.5938,1868.125 Z "/><text fill="#000000" font-family="sans-serif" font-size="12" lengthAdjust="spacingAndGlyphs" textLength="75" x="2043.75" y="1876.6074">IOTMessage</text><line style="stroke: #A80036; stroke-width: 1.5;" x1="1866" x2="2264" y1="1888.4531" y2="1888.4531"/><rect fill="none" height="6" style="stroke: #C82930; stroke-width: 1.0;" width="6" x="1873" y="1897.3555"/><text fill="#000000" font-family="sans-serif" font-size="11" lengthAdjust="spacingAndGlyphs" textLength="162" x="1885" y="1902.6636">private final String servDesc</text><rect fill="none" height="6" style="stroke: #C82930; stroke-width: 1.0;" width="6" x="1873" y="1910.1602"/><text fill="#000000" font-family="sans-serif" font-size="11" lengthAdjust="spacingAndGlyphs" textLength="189" x="1885" y="1915.4683">private final String messageType</text><rect fill="none" height="6" style="stroke: #C82930; stroke-width: 1.0;" width="6" x="1873" y="1922.9648"/><text fill="#000000" font-family="sans-serif" font-size="11" lengthAdjust="spacingAndGlyphs" textLength="162" x="1885" y="1928.2729">private final String message</text><line style="stroke: #A80036; stroke-width: 1.5;" x1="1866" x2="2264" y1="1934.8672" y2="1934.8672"/><ellipse cx="1876" cy="1946.7695" fill="#84BE84" rx="3" ry="3" style="stroke: #038048; stroke-width: 1.0;"/><text fill="#000000" font-family="sans-serif" font-size="11" lengthAdjust="spacingAndGlyphs" textLength="374" x="1885" y="1949.0776">public IOTMessage(String newMessageType, String newMessage)</text><ellipse cx="1876" cy="1959.5742" fill="#84BE84" rx="3" ry="3" style="stroke: #038048; stroke-width: 1.0;"/><text fill="#000000" font-family="sans-serif" font-size="11" lengthAdjust="spacingAndGlyphs" textLength="179" x="1885" y="1961.8823">public String getMessageType()</text><ellipse cx="1876" cy="1972.3789" fill="#84BE84" rx="3" ry="3" style="stroke: #038048; stroke-width: 1.0;"/><text fill="#000000" font-family="sans-serif" font-size="11" lengthAdjust="spacingAndGlyphs" textLength="152" x="1885" y="1974.687">public String getMessage()</text><!--class AlarmClockGUI--><rect fill="#FEFECE" filter="url(#fih512n)" height="99.2188" style="stroke: #A80036; stroke-width: 1.5;" width="500" x="2354" y="1569.9531"/><ellipse cx="2555.25" cy="1585.9531" fill="#ADD1B2" rx="11" ry="11" style="stroke: #A80036; stroke-width: 1.0;"/><path d="M2557.5938,1581.625 L2557.7656,1581.7031 C2557.9844,1581.3906 2558.1875,1581.2969 2558.4844,1581.2969 C2558.7813,1581.2969 2559.0625,1581.4375 2559.2188,1581.7031 C2559.3125,1581.8594 2559.3281,1581.9844 2559.3281,1582.4219 L2559.3281,1583.8438 C2559.3281,1584.2656 2559.2969,1584.4531 2559.1875,1584.6094 C2559.0156,1584.8281 2558.75,1584.9688 2558.4844,1584.9688 C2558.2656,1584.9688 2558.0313,1584.8594 2557.8906,1584.7188 C2557.75,1584.5938 2557.7188,1584.4688 2557.6563,1584.0625 C2557.5625,1583.6563 2557.3906,1583.4375 2556.9063,1583.1563 C2556.4375,1582.9063 2555.8281,1582.75 2555.25,1582.75 C2553.5156,1582.75 2552.2656,1584.0625 2552.2656,1585.8438 L2552.2656,1586.9375 C2552.2656,1588.6406 2553.5625,1589.7344 2555.6094,1589.7344 C2556.375,1589.7344 2557.0625,1589.6094 2557.4844,1589.3438 C2557.6719,1589.25 2557.6719,1589.25 2558.125,1588.7656 C2558.3125,1588.5781 2558.5156,1588.5 2558.7344,1588.5 C2559.2031,1588.5 2559.5938,1588.8906 2559.5938,1589.3438 C2559.5938,1589.7344 2559.2656,1590.1875 2558.6875,1590.5938 C2557.9375,1591.1406 2556.7813,1591.4375 2555.5625,1591.4375 C2552.6719,1591.4375 2550.5625,1589.5469 2550.5625,1586.9688 L2550.5625,1585.8438 C2550.5625,1583.125 2552.5625,1581.0469 2555.1875,1581.0469 C2556.0625,1581.0469 2556.6563,1581.1875 2557.5938,1581.625 Z "/><text fill="#000000" font-family="sans-serif" font-size="12" lengthAdjust="spacingAndGlyphs" textLength="89" x="2575.75" y="1590.1074">AlarmClockGUI</text><line style="stroke: #A80036; stroke-width: 1.5;" x1="2355" x2="2853" y1="1601.9531" y2="1601.9531"/><rect fill="none" height="6" style="stroke: #C82930; stroke-width: 1.0;" width="6" x="2362" y="1610.8555"/><text fill="#000000" font-family="sans-serif" font-size="11" lengthAdjust="spacingAndGlyphs" text-decoration="underline" textLength="258" x="2374" y="1616.1636">private static final long serialVersionUID = 1L</text><line style="stroke: #000000; stroke-width: 1.0;" x1="2374" x2="2632" y1="1618.1636" y2="1618.1636"/><line style="stroke: #A80036; stroke-width: 1.5;" x1="2355" x2="2853" y1="1622.7578" y2="1622.7578"/><ellipse cx="2365" cy="1634.6602" fill="#84BE84" rx="3" ry="3" style="stroke: #038048; stroke-width: 1.0;"/><text fill="#000000" font-family="sans-serif" font-size="11" lengthAdjust="spacingAndGlyphs" textLength="128" x="2374" y="1636.9683">public AlarmClockGUI()</text><polygon fill="#FFFF44" points="2365,1642.4648,2369,1646.4648,2365,1650.4648,2361,1646.4648" style="stroke: #B38D22; stroke-width: 1.0;"/><text fill="#000000" font-family="sans-serif" font-size="11" lengthAdjust="spacingAndGlyphs" textLength="469" x="2374" y="1649.7729">protected void doGet(HttpServletRequest request, HttpServletResponse response)</text><polygon fill="#FFFF44" points="2365,1655.2695,2369,1659.2695,2365,1663.2695,2361,1659.2695" style="stroke: #B38D22; stroke-width: 1.0;"/><text fill="#000000" font-family="sans-serif" font-size="11" lengthAdjust="spacingAndGlyphs" textLength="474" x="2374" y="1662.5776">protected void doPost(HttpServletRequest request, HttpServletResponse response)</text><!--class AlarmClockService--><rect fill="#FEFECE" filter="url(#fih512n)" height="278.4844" style="stroke: #A80036; stroke-width: 1.5;" width="342" x="2889" y="1480.4531"/><ellipse cx="2999.25" cy="1496.4531" fill="#ADD1B2" rx="11" ry="11" style="stroke: #A80036; stroke-width: 1.0;"/><path d="M3001.5938,1492.125 L3001.7656,1492.2031 C3001.9844,1491.8906 3002.1875,1491.7969 3002.4844,1491.7969 C3002.7813,1491.7969 3003.0625,1491.9375 3003.2188,1492.2031 C3003.3125,1492.3594 3003.3281,1492.4844 3003.3281,1492.9219 L3003.3281,1494.3438 C3003.3281,1494.7656 3003.2969,1494.9531 3003.1875,1495.1094 C3003.0156,1495.3281 3002.75,1495.4688 3002.4844,1495.4688 C3002.2656,1495.4688 3002.0313,1495.3594 3001.8906,1495.2188 C3001.75,1495.0938 3001.7188,1494.9688 3001.6563,1494.5625 C3001.5625,1494.1563 3001.3906,1493.9375 3000.9063,1493.6563 C3000.4375,1493.4063 2999.8281,1493.25 2999.25,1493.25 C2997.5156,1493.25 2996.2656,1494.5625 2996.2656,1496.3438 L2996.2656,1497.4375 C2996.2656,1499.1406 2997.5625,1500.2344 2999.6094,1500.2344 C3000.375,1500.2344 3001.0625,1500.1094 3001.4844,1499.8438 C3001.6719,1499.75 3001.6719,1499.75 3002.125,1499.2656 C3002.3125,1499.0781 3002.5156,1499 3002.7344,1499 C3003.2031,1499 3003.5938,1499.3906 3003.5938,1499.8438 C3003.5938,1500.2344 3003.2656,1500.6875 3002.6875,1501.0938 C3001.9375,1501.6406 3000.7813,1501.9375 2999.5625,1501.9375 C2996.6719,1501.9375 2994.5625,1500.0469 2994.5625,1497.4688 L2994.5625,1496.3438 C2994.5625,1493.625 2996.5625,1491.5469 2999.1875,1491.5469 C3000.0625,1491.5469 3000.6563,1491.6875 3001.5938,1492.125 Z "/><text fill="#000000" font-family="sans-serif" font-size="12" lengthAdjust="spacingAndGlyphs" textLength="113" x="3019.75" y="1500.6074">AlarmClockService</text><line style="stroke: #A80036; stroke-width: 1.5;" x1="2890" x2="3230" y1="1512.4531" y2="1512.4531"/><rect fill="none" height="6" style="stroke: #C82930; stroke-width: 1.0;" width="6" x="2897" y="1521.3555"/><text fill="#000000" font-family="sans-serif" font-size="11" lengthAdjust="spacingAndGlyphs" textLength="110" x="2909" y="1526.6636">private Timer timer</text><rect fill="none" height="6" style="stroke: #C82930; stroke-width: 1.0;" width="6" x="2897" y="1534.1602"/><text fill="#000000" font-family="sans-serif" font-size="11" lengthAdjust="spacingAndGlyphs" textLength="223" x="2909" y="1539.4683">private Map&lt;Long, TimerTask&gt; alarms</text><rect fill="none" height="6" style="stroke: #C82930; stroke-width: 1.0;" width="6" x="2897" y="1546.9648"/><text fill="#000000" font-family="sans-serif" font-size="11" lengthAdjust="spacingAndGlyphs" textLength="178" x="2909" y="1552.2729">private IOTClientInterface client</text><rect fill="none" height="6" style="stroke: #C82930; stroke-width: 1.0;" width="6" x="2897" y="1559.7695"/><text fill="#000000" font-family="sans-serif" font-size="11" lengthAdjust="spacingAndGlyphs" textLength="233" x="2909" y="1565.0776">final private String servDesc = "ACS101"</text><polygon fill="none" points="2900,1570.5742,2904,1574.5742,2900,1578.5742,2896,1574.5742" style="stroke: #B38D22; stroke-width: 1.0;"/><text fill="#000000" font-family="sans-serif" font-size="11" lengthAdjust="spacingAndGlyphs" textLength="316" x="2909" y="1577.8823">final String[] compatDevice = { "ACS", "CMS", "LBCS" }</text><ellipse cx="2900" cy="1588.3789" fill="none" rx="3" ry="3" style="stroke: #038048; stroke-width: 1.0;"/><text fill="#000000" font-family="sans-serif" font-size="11" lengthAdjust="spacingAndGlyphs" text-decoration="underline" textLength="304" x="2909" y="1590.687">public static final int EC_ALARM_ALREADY_EXISTS = -1</text><line style="stroke: #000000; stroke-width: 1.0;" x1="2909" x2="3213" y1="1592.687" y2="1592.687"/><ellipse cx="2900" cy="1601.1836" fill="none" rx="3" ry="3" style="stroke: #038048; stroke-width: 1.0;"/><text fill="#000000" font-family="sans-serif" font-size="11" lengthAdjust="spacingAndGlyphs" text-decoration="underline" textLength="294" x="2909" y="1603.4917">public static final int EC_ALARM_DOESNT_EXIST = -2</text><line style="stroke: #000000; stroke-width: 1.0;" x1="2909" x2="3203" y1="1605.4917" y2="1605.4917"/><ellipse cx="2900" cy="1613.9883" fill="none" rx="3" ry="3" style="stroke: #038048; stroke-width: 1.0;"/><text fill="#000000" font-family="sans-serif" font-size="11" lengthAdjust="spacingAndGlyphs" text-decoration="underline" textLength="260" x="2909" y="1616.2964">public static final int EC_ALARM_RUNNING = -3</text><line style="stroke: #000000; stroke-width: 1.0;" x1="2909" x2="3169" y1="1618.2964" y2="1618.2964"/><ellipse cx="2900" cy="1626.793" fill="none" rx="3" ry="3" style="stroke: #038048; stroke-width: 1.0;"/><text fill="#000000" font-family="sans-serif" font-size="11" lengthAdjust="spacingAndGlyphs" text-decoration="underline" textLength="255" x="2909" y="1629.1011">public static final int EC_ALARM_IN_PAST = -4</text><line style="stroke: #000000; stroke-width: 1.0;" x1="2909" x2="3164" y1="1631.1011" y2="1631.1011"/><ellipse cx="2900" cy="1639.5977" fill="none" rx="3" ry="3" style="stroke: #038048; stroke-width: 1.0;"/><text fill="#000000" font-family="sans-serif" font-size="11" lengthAdjust="spacingAndGlyphs" text-decoration="underline" textLength="304" x="2909" y="1641.9058">public static final int EC_ALARM_NOT_CANCELLED = -5</text><line style="stroke: #000000; stroke-width: 1.0;" x1="2909" x2="3213" y1="1643.9058" y2="1643.9058"/><line style="stroke: #A80036; stroke-width: 1.5;" x1="2890" x2="3230" y1="1648.5" y2="1648.5"/><ellipse cx="2900" cy="1660.4023" fill="#84BE84" rx="3" ry="3" style="stroke: #038048; stroke-width: 1.0;"/><text fill="#000000" font-family="sans-serif" font-size="11" lengthAdjust="spacingAndGlyphs" textLength="310" x="2909" y="1662.7104">public AlarmClockService(IOTClientInterface newClient)</text><ellipse cx="2900" cy="1673.207" fill="#84BE84" rx="3" ry="3" style="stroke: #038048; stroke-width: 1.0;"/><text fill="#000000" font-family="sans-serif" font-size="11" lengthAdjust="spacingAndGlyphs" textLength="194" x="2909" y="1675.5151">public int setAlarm(Calendar date)</text><ellipse cx="2900" cy="1686.0117" fill="#84BE84" rx="3" ry="3" style="stroke: #038048; stroke-width: 1.0;"/><text fill="#000000" font-family="sans-serif" font-size="11" lengthAdjust="spacingAndGlyphs" textLength="202" x="2909" y="1688.3198">public ArrayList&lt;Long&gt; getAlarms()</text><ellipse cx="2900" cy="1698.8164" fill="#84BE84" rx="3" ry="3" style="stroke: #038048; stroke-width: 1.0;"/><text fill="#000000" font-family="sans-serif" font-size="11" lengthAdjust="spacingAndGlyphs" textLength="203" x="2909" y="1701.1245">public int startAlarm(Calendar date)</text><ellipse cx="2900" cy="1711.6211" fill="#84BE84" rx="3" ry="3" style="stroke: #038048; stroke-width: 1.0;"/><text fill="#000000" font-family="sans-serif" font-size="11" lengthAdjust="spacingAndGlyphs" textLength="212" x="2909" y="1713.9292">public int cancelAlarm(Calendar date)</text><ellipse cx="2900" cy="1724.4258" fill="#84BE84" rx="3" ry="3" style="stroke: #038048; stroke-width: 1.0;"/><text fill="#000000" font-family="sans-serif" font-size="11" lengthAdjust="spacingAndGlyphs" textLength="199" x="2909" y="1726.7339">public int remAlarm(Calendar date)</text><ellipse cx="2900" cy="1737.2305" fill="#84BE84" rx="3" ry="3" style="stroke: #038048; stroke-width: 1.0;"/><text fill="#000000" font-family="sans-serif" font-size="11" lengthAdjust="spacingAndGlyphs" textLength="217" x="2909" y="1739.5386">public boolean isActive(Calendar date)</text><ellipse cx="2900" cy="1750.0352" fill="#84BE84" rx="3" ry="3" style="stroke: #038048; stroke-width: 1.0;"/><text fill="#000000" font-family="sans-serif" font-size="11" lengthAdjust="spacingAndGlyphs" textLength="128" x="2909" y="1752.3433">public String toString()</text><!--class PiezoPlayer--><rect fill="#FEFECE" filter="url(#fih512n)" height="99.2188" style="stroke: #A80036; stroke-width: 1.5;" width="351" x="1967.5" y="1569.9531"/><ellipse cx="2103.75" cy="1585.9531" fill="#ADD1B2" rx="11" ry="11" style="stroke: #A80036; stroke-width: 1.0;"/><path d="M2106.0938,1581.625 L2106.2656,1581.7031 C2106.4844,1581.3906 2106.6875,1581.2969 2106.9844,1581.2969 C2107.2813,1581.2969 2107.5625,1581.4375 2107.7188,1581.7031 C2107.8125,1581.8594 2107.8281,1581.9844 2107.8281,1582.4219 L2107.8281,1583.8438 C2107.8281,1584.2656 2107.7969,1584.4531 2107.6875,1584.6094 C2107.5156,1584.8281 2107.25,1584.9688 2106.9844,1584.9688 C2106.7656,1584.9688 2106.5313,1584.8594 2106.3906,1584.7188 C2106.25,1584.5938 2106.2188,1584.4688 2106.1563,1584.0625 C2106.0625,1583.6563 2105.8906,1583.4375 2105.4063,1583.1563 C2104.9375,1582.9063 2104.3281,1582.75 2103.75,1582.75 C2102.0156,1582.75 2100.7656,1584.0625 2100.7656,1585.8438 L2100.7656,1586.9375 C2100.7656,1588.6406 2102.0625,1589.7344 2104.1094,1589.7344 C2104.875,1589.7344 2105.5625,1589.6094 2105.9844,1589.3438 C2106.1719,1589.25 2106.1719,1589.25 2106.625,1588.7656 C2106.8125,1588.5781 2107.0156,1588.5 2107.2344,1588.5 C2107.7031,1588.5 2108.0938,1588.8906 2108.0938,1589.3438 C2108.0938,1589.7344 2107.7656,1590.1875 2107.1875,1590.5938 C2106.4375,1591.1406 2105.2813,1591.4375 2104.0625,1591.4375 C2101.1719,1591.4375 2099.0625,1589.5469 2099.0625,1586.9688 L2099.0625,1585.8438 C2099.0625,1583.125 2101.0625,1581.0469 2103.6875,1581.0469 C2104.5625,1581.0469 2105.1563,1581.1875 2106.0938,1581.625 Z "/><text fill="#000000" font-family="sans-serif" font-size="12" lengthAdjust="spacingAndGlyphs" textLength="70" x="2124.25" y="1590.1074">PiezoPlayer</text><line style="stroke: #A80036; stroke-width: 1.5;" x1="1968.5" x2="2317.5" y1="1601.9531" y2="1601.9531"/><rect fill="none" height="6" style="stroke: #C82930; stroke-width: 1.0;" width="6" x="1975.5" y="1610.8555"/><text fill="#000000" font-family="sans-serif" font-size="11" lengthAdjust="spacingAndGlyphs" textLength="172" x="1987.5" y="1616.1636">private final int PIEZO_PIN = 0</text><rect fill="none" height="6" style="stroke: #C82930; stroke-width: 1.0;" width="6" x="1975.5" y="1623.6602"/><text fill="#000000" font-family="sans-serif" font-size="11" lengthAdjust="spacingAndGlyphs" textLength="325" x="1987.5" y="1628.9683">private final int[][] MARIO_THEME = {too long for display}</text><line style="stroke: #A80036; stroke-width: 1.5;" x1="1968.5" x2="2317.5" y1="1635.5625" y2="1635.5625"/><text fill="#000000" font-family="sans-serif" font-size="11" lengthAdjust="spacingAndGlyphs" text-decoration="underline" textLength="215" x="1987.5" y="1649.7729">com.pi4j.wiringpi.Gpio.wiringPiSetup()</text><line style="stroke: #000000; stroke-width: 1.0;" x1="1987.5" x2="2202.5" y1="1651.7729" y2="1651.7729"/><ellipse cx="1978.5" cy="1660.2695" fill="#84BE84" rx="3" ry="3" style="stroke: #038048; stroke-width: 1.0;"/><text fill="#000000" font-family="sans-serif" font-size="11" lengthAdjust="spacingAndGlyphs" textLength="182" x="1987.5" y="1662.5776">public void playTune(int melody)</text><!--class AlarmTest--><rect fill="#FEFECE" filter="url(#fih512n)" height="137.6328" style="stroke: #A80036; stroke-width: 1.5;" width="254" x="2780" y="1242.4531"/><ellipse cx="2871.75" cy="1258.4531" fill="#ADD1B2" rx="11" ry="11" style="stroke: #A80036; stroke-width: 1.0;"/><path d="M2874.0938,1254.125 L2874.2656,1254.2031 C2874.4844,1253.8906 2874.6875,1253.7969 2874.9844,1253.7969 C2875.2813,1253.7969 2875.5625,1253.9375 2875.7188,1254.2031 C2875.8125,1254.3594 2875.8281,1254.4844 2875.8281,1254.9219 L2875.8281,1256.3438 C2875.8281,1256.7656 2875.7969,1256.9531 2875.6875,1257.1094 C2875.5156,1257.3281 2875.25,1257.4688 2874.9844,1257.4688 C2874.7656,1257.4688 2874.5313,1257.3594 2874.3906,1257.2188 C2874.25,1257.0938 2874.2188,1256.9688 2874.1563,1256.5625 C2874.0625,1256.1563 2873.8906,1255.9375 2873.4063,1255.6563 C2872.9375,1255.4063 2872.3281,1255.25 2871.75,1255.25 C2870.0156,1255.25 2868.7656,1256.5625 2868.7656,1258.3438 L2868.7656,1259.4375 C2868.7656,1261.1406 2870.0625,1262.2344 2872.1094,1262.2344 C2872.875,1262.2344 2873.5625,1262.1094 2873.9844,1261.8438 C2874.1719,1261.75 2874.1719,1261.75 2874.625,1261.2656 C2874.8125,1261.0781 2875.0156,1261 2875.2344,1261 C2875.7031,1261 2876.0938,1261.3906 2876.0938,1261.8438 C2876.0938,1262.2344 2875.7656,1262.6875 2875.1875,1263.0938 C2874.4375,1263.6406 2873.2813,1263.9375 2872.0625,1263.9375 C2869.1719,1263.9375 2867.0625,1262.0469 2867.0625,1259.4688 L2867.0625,1258.3438 C2867.0625,1255.625 2869.0625,1253.5469 2871.6875,1253.5469 C2872.5625,1253.5469 2873.1563,1253.6875 2874.0938,1254.125 Z "/><text fill="#000000" font-family="sans-serif" font-size="12" lengthAdjust="spacingAndGlyphs" textLength="62" x="2892.25" y="1262.6074">AlarmTest</text><line style="stroke: #A80036; stroke-width: 1.5;" x1="2781" x2="3033" y1="1274.4531" y2="1274.4531"/><rect fill="none" height="6" style="stroke: #C82930; stroke-width: 1.0;" width="6" x="2788" y="1283.3555"/><text fill="#000000" font-family="sans-serif" font-size="11" lengthAdjust="spacingAndGlyphs" text-decoration="underline" textLength="228" x="2800" y="1288.6636">static private AlarmClockService service</text><line style="stroke: #000000; stroke-width: 1.0;" x1="2800" x2="3028" y1="1290.6636" y2="1290.6636"/><rect fill="none" height="6" style="stroke: #C82930; stroke-width: 1.0;" width="6" x="2788" y="1296.1602"/><text fill="#000000" font-family="sans-serif" font-size="11" lengthAdjust="spacingAndGlyphs" text-decoration="underline" textLength="215" x="2800" y="1301.4683">static private long alarmDelay = 5000</text><line style="stroke: #000000; stroke-width: 1.0;" x1="2800" x2="3015" y1="1303.4683" y2="1303.4683"/><rect fill="none" height="6" style="stroke: #C82930; stroke-width: 1.0;" width="6" x="2788" y="1308.9648"/><text fill="#000000" font-family="sans-serif" font-size="11" lengthAdjust="spacingAndGlyphs" text-decoration="underline" textLength="157" x="2800" y="1314.2729">static private long timeInMs</text><line style="stroke: #000000; stroke-width: 1.0;" x1="2800" x2="2957" y1="1316.2729" y2="1316.2729"/><line style="stroke: #A80036; stroke-width: 1.5;" x1="2781" x2="3033" y1="1320.8672" y2="1320.8672"/><rect fill="#F24D5C" height="6" style="stroke: #C82930; stroke-width: 1.0;" width="6" x="2788" y="1329.7695"/><text fill="#000000" font-family="sans-serif" font-size="11" lengthAdjust="spacingAndGlyphs" textLength="144" x="2800" y="1335.0776">private void setUpAlarm()</text><ellipse cx="2791" cy="1345.5742" fill="#84BE84" rx="3" ry="3" style="stroke: #038048; stroke-width: 1.0;"/><text fill="#000000" font-family="sans-serif" font-size="11" lengthAdjust="spacingAndGlyphs" textLength="155" x="2800" y="1347.8823">public void testStartAlarm()</text><ellipse cx="2791" cy="1358.3789" fill="#84BE84" rx="3" ry="3" style="stroke: #038048; stroke-width: 1.0;"/><text fill="#000000" font-family="sans-serif" font-size="11" lengthAdjust="spacingAndGlyphs" textLength="165" x="2800" y="1360.687">public void testCancelAlarm()</text><ellipse cx="2791" cy="1371.1836" fill="#84BE84" rx="3" ry="3" style="stroke: #038048; stroke-width: 1.0;"/><text fill="#000000" font-family="sans-serif" font-size="11" lengthAdjust="spacingAndGlyphs" textLength="172" x="2800" y="1373.4917">public void testRemoveAlarm()</text><!--class ServletContextListener--><rect fill="#FEFECE" filter="url(#fih512n)" height="73.6094" style="stroke: #A80036; stroke-width: 1.5;" width="428" x="1852" y="29.4531"/><ellipse cx="1990.75" cy="45.4531" fill="#B4A7E5" rx="11" ry="11" style="stroke: #A80036; stroke-width: 1.0;"/><path d="M1991.7031,42.2344 L1991.7031,48.75 L1993.4219,48.75 C1993.875,48.75 1994.0156,48.7813 1994.1875,48.9063 C1994.4219,49.0781 1994.5313,49.3281 1994.5313,49.6094 C1994.5313,50.1719 1994.1719,50.4531 1993.4219,50.4531 L1988.2813,50.4531 C1987.875,50.4531 1987.6719,50.4063 1987.5156,50.2813 C1987.2969,50.125 1987.1563,49.8594 1987.1563,49.6094 C1987.1563,49.3125 1987.3125,49.0313 1987.5625,48.875 C1987.7188,48.7656 1987.8438,48.75 1988.2813,48.75 L1990,48.75 L1990,42.2344 L1988.2813,42.2344 C1987.8594,42.2344 1987.6719,42.2031 1987.5156,42.0938 C1987.2969,41.9219 1987.1563,41.6719 1987.1563,41.3906 C1987.1563,41.1094 1987.3125,40.8125 1987.5625,40.6563 C1987.7188,40.5625 1987.8438,40.5469 1988.2813,40.5469 L1993.4219,40.5469 C1993.875,40.5469 1994.0156,40.5781 1994.1875,40.6875 C1994.4219,40.8594 1994.5313,41.125 1994.5313,41.3906 C1994.5313,41.6875 1994.3906,41.9688 1994.125,42.125 C1994,42.2031 1993.8125,42.2344 1993.4219,42.2344 Z "/><text fill="#000000" font-family="sans-serif" font-size="12" font-style="italic" lengthAdjust="spacingAndGlyphs" textLength="142" x="2011.25" y="49.6074">ServletContextListener</text><line style="stroke: #A80036; stroke-width: 1.5;" x1="1853" x2="2279" y1="61.4531" y2="61.4531"/><line style="stroke: #A80036; stroke-width: 1.5;" x1="1853" x2="2279" y1="69.4531" y2="69.4531"/><ellipse cx="1863" cy="81.3555" fill="#84BE84" rx="3" ry="3" style="stroke: #038048; stroke-width: 1.0;"/><text fill="#000000" font-family="sans-serif" font-size="11" lengthAdjust="spacingAndGlyphs" textLength="396" x="1872" y="83.6636">public void contextInitialized(ServletContextEvent servletContextEvent)</text><ellipse cx="1863" cy="94.1602" fill="#84BE84" rx="3" ry="3" style="stroke: #038048; stroke-width: 1.0;"/><text fill="#000000" font-family="sans-serif" font-size="11" lengthAdjust="spacingAndGlyphs" textLength="402" x="1872" y="96.4683">public void contextDestroyed(ServletContextEvent servletContextEvent)</text><polygon fill="#FBFB77" filter="url(#fih512n)" points="366,247.9531,366,273.0859,750,273.0859,750,257.9531,740,247.9531,366,247.9531" style="stroke: #A80036; stroke-width: 1.0;"/><line style="stroke: #A80036; stroke-width: 1.0;" x1="740" x2="740" y1="247.9531" y2="257.9531"/><line style="stroke: #A80036; stroke-width: 1.0;" x1="750" x2="740" y1="257.9531" y2="257.9531"/><text fill="#000000" font-family="sans-serif" font-size="13" lengthAdjust="spacingAndGlyphs" textLength="363" x="372" y="265.02">shared server library (same codebase across all devices)</text><polygon fill="#FBFB77" filter="url(#fih512n)" points="6,1298.9531,6,1324.0859,384,1324.0859,384,1308.9531,374,1298.9531,6,1298.9531" style="stroke: #A80036; stroke-width: 1.0;"/><line style="stroke: #A80036; stroke-width: 1.0;" x1="374" x2="374" y1="1298.9531" y2="1308.9531"/><line style="stroke: #A80036; stroke-width: 1.0;" x1="384" x2="374" y1="1308.9531" y2="1308.9531"/><text fill="#000000" font-family="sans-serif" font-size="13" lengthAdjust="spacingAndGlyphs" textLength="357" x="12" y="1316.02">shared client library (same codebase across all devices)</text><polygon fill="#FBFB77" filter="url(#fih512n)" points="490,1021.4531,490,1046.5859,750,1046.5859,750,1031.4531,740,1021.4531,490,1021.4531" style="stroke: #A80036; stroke-width: 1.0;"/><line style="stroke: #A80036; stroke-width: 1.0;" x1="740" x2="740" y1="1021.4531" y2="1031.4531"/><line style="stroke: #A80036; stroke-width: 1.0;" x1="750" x2="740" y1="1031.4531" y2="1031.4531"/><text fill="#000000" font-family="sans-serif" font-size="13" lengthAdjust="spacingAndGlyphs" textLength="239" x="496" y="1038.52">code dependent on underlying device</text><!--class HTTPServlet--><rect fill="#FEFECE" filter="url(#fih512n)" height="48" style="stroke: #A80036; stroke-width: 1.5;" width="106" x="475" y="489.4531"/><ellipse cx="490" cy="505.4531" fill="#ADD1B2" rx="11" ry="11" style="stroke: #A80036; stroke-width: 1.0;"/><path d="M492.3438,501.125 L492.5156,501.2031 C492.7344,500.8906 492.9375,500.7969 493.2344,500.7969 C493.5313,500.7969 493.8125,500.9375 493.9688,501.2031 C494.0625,501.3594 494.0781,501.4844 494.0781,501.9219 L494.0781,503.3438 C494.0781,503.7656 494.0469,503.9531 493.9375,504.1094 C493.7656,504.3281 493.5,504.4688 493.2344,504.4688 C493.0156,504.4688 492.7813,504.3594 492.6406,504.2188 C492.5,504.0938 492.4688,503.9688 492.4063,503.5625 C492.3125,503.1563 492.1406,502.9375 491.6563,502.6563 C491.1875,502.4063 490.5781,502.25 490,502.25 C488.2656,502.25 487.0156,503.5625 487.0156,505.3438 L487.0156,506.4375 C487.0156,508.1406 488.3125,509.2344 490.3594,509.2344 C491.125,509.2344 491.8125,509.1094 492.2344,508.8438 C492.4219,508.75 492.4219,508.75 492.875,508.2656 C493.0625,508.0781 493.2656,508 493.4844,508 C493.9531,508 494.3438,508.3906 494.3438,508.8438 C494.3438,509.2344 494.0156,509.6875 493.4375,510.0938 C492.6875,510.6406 491.5313,510.9375 490.3125,510.9375 C487.4219,510.9375 485.3125,509.0469 485.3125,506.4688 L485.3125,505.3438 C485.3125,502.625 487.3125,500.5469 489.9375,500.5469 C490.8125,500.5469 491.4063,500.6875 492.3438,501.125 Z "/><text fill="#000000" font-family="sans-serif" font-size="12" lengthAdjust="spacingAndGlyphs" textLength="74" x="504" y="509.6074">HTTPServlet</text><line style="stroke: #A80036; stroke-width: 1.5;" x1="476" x2="580" y1="521.4531" y2="521.4531"/><line style="stroke: #A80036; stroke-width: 1.5;" x1="476" x2="580" y1="529.4531" y2="529.4531"/><path d="M575.774,273.0231 C610.666,295.1231 691.251,343.2331 766,366.4531 C994.425,437.4231 1260.7775,473.9106 1471.2088,492.6619 C1576.4244,502.0375 1667.6597,506.9791 1733.1836,509.5798 C1765.9455,510.8802 1792.2796,511.5954 1810.7195,511.9871 C1819.9394,512.1829 1827.1858,512.2979 1832.2753,512.3646 " fill="none" style="stroke: #A80036; stroke-width: 1.0; stroke-dasharray: 7.0,7.0;"/><path d="M215.325,1324.0131 C253.349,1345.5231 338.005,1392.8221 411,1429.4531 C498.912,1473.5706 599.123,1520.0449 678.2296,1555.8686 C717.7829,1573.7805 752.0602,1589.0298 776.8859,1599.9905 C789.2987,1605.4708 799.3487,1609.8791 806.5138,1613.0119 C807.4095,1613.4035 808.2601,1613.7752 809.0645,1614.1266 C809.4668,1614.3022 809.8575,1614.4728 810.2366,1614.6383 C810.4261,1614.721 810.6127,1614.8025 810.7964,1614.8826 " fill="none" style="stroke: #A80036; stroke-width: 1.0; stroke-dasharray: 7.0,7.0;"/><path d="M671.297,1046.5231 C786.7155,1072.5681 1077.3113,1138.1381 1339.9624,1197.4019 C1471.2879,1227.0338 1595.6273,1255.0891 1687.5904,1275.8389 C1733.5719,1286.2138 1771.4593,1294.7624 1798.0788,1300.7685 C1811.3886,1303.7715 1821.8814,1306.1389 1829.1605,1307.7812 C1830.0704,1307.9865 1830.93,1308.1804 1831.7387,1308.3629 C1832.1431,1308.4541 1832.5347,1308.5425 1832.9134,1308.6279 " fill="none" style="stroke: #A80036; stroke-width: 1.0; stroke-dasharray: 7.0,7.0;"/><path d="M494.627,553.1531 C468.656,587.3131 437,639.6631 437,691.9531 C437,691.9531 437,691.9531 437,1312.4531 C437,1469.8801 1691.77,1421.6561 1849,1429.4531 C1876.03,1430.7931 2310.19,1429.3221 2336,1437.4531 C2419.81,1463.8571 2501.3,1525.6221 2552,1569.6451 " fill="none" style="stroke: #A80036; stroke-width: 1.0;"/><polygon fill="none" points="489.178,548.7631,507.123,537.4931,500.122,557.4931,489.178,548.7631" style="stroke: #A80036; stroke-width: 1.0;"/><path d="M601.304,522.6531 C823.246,547.4731 1495.3,622.6431 1864.85,663.9731 " fill="none" style="stroke: #A80036; stroke-width: 1.0;"/><polygon fill="none" points="600.354,529.5931,581.256,520.4131,601.91,515.6731,600.354,529.5931" style="stroke: #A80036; stroke-width: 1.0;"/><path d="M1090.24,1676.8711 C1089.58,1726.0511 1088.62,1797.5051 1087.92,1849.8561 " fill="none" style="stroke: #A80036; stroke-width: 1.0; stroke-dasharray: 7.0,7.0;"/><polygon fill="none" points="1083.25,1676.5391,1090.51,1656.6351,1097.24,1676.7271,1083.25,1676.5391" style="stroke: #A80036; stroke-width: 1.0;"/><path d="M2585,944.0431 C2585,957.4731 2585,971.4731 2585,984.2931 " fill="none" style="stroke: #A80036; stroke-width: 1.0; stroke-dasharray: 7.0,7.0;"/><polygon fill="none" points="2578,943.6531,2585,923.6531,2592,943.6531,2578,943.6531" style="stroke: #A80036; stroke-width: 1.0;"/><path d="M2663.33,1362.8031 C2695.4,1377.0531 2730.84,1392.0551 2764,1404.4531 C2810.61,1421.8821 2828.1,1412.2321 2871,1437.4531 C2891.66,1449.5991 2911.83,1464.4241 2930.84,1480.3091 " fill="none" style="stroke: #A80036; stroke-width: 1.0; stroke-dasharray: 7.0,7.0;"/><polygon fill="none" points="2660.27,1369.0931,2644.89,1354.5231,2666,1356.3231,2660.27,1369.0931" style="stroke: #A80036; stroke-width: 1.0;"/><path d="M2605.32,568.2931 C2607.64,572.3731 2609.89,576.4631 2612,580.4531 C2617.23,590.3331 2622.46,600.8431 2627.47,611.3231 " fill="none" style="stroke: #A80036; stroke-width: 1.0; stroke-dasharray: 7.0,7.0;"/><polygon fill="none" points="2599.07,571.4631,2594.98,550.6731,2611.14,564.3831,2599.07,571.4631" style="stroke: #A80036; stroke-width: 1.0;"/><path d="M1549,1676.8041 C1549,1724.1601 1549,1792.2021 1549,1843.9441 " fill="none" style="stroke: #A80036; stroke-width: 1.0; stroke-dasharray: 7.0,7.0;"/><polygon fill="none" points="1542,1676.6351,1549,1656.6351,1556,1676.6351,1542,1676.6351" style="stroke: #A80036; stroke-width: 1.0;"/><path d="M2066,123.6531 C2066,142.9431 2066,164.8431 2066,185.3331 " fill="none" style="stroke: #A80036; stroke-width: 1.0; stroke-dasharray: 7.0,7.0;"/><polygon fill="none" points="2059,123.5631,2066,103.5631,2073,123.5631,2059,123.5631" style="stroke: #A80036; stroke-width: 1.0;"/><path d="M1087,2183.2941 C1087,2200.2561 1087,2220.1141 1087,2238.5411 " fill="none" style="stroke: #A80036; stroke-width: 1.0;"/><polygon fill="#A80036" points="1087,2243.6971,1091,2234.6971,1087,2238.6971,1083,2234.6971,1087,2243.6971" style="stroke: #A80036; stroke-width: 1.0;"/><text fill="#000000" font-family="sans-serif" font-size="13" lengthAdjust="spacingAndGlyphs" textLength="7" x="1079.5734" y="2233.0004">*</text><path d="M2238.18,742.5731 C2311.09,771.3431 2402.72,807.5131 2473.49,835.4431 " fill="none" style="stroke: #A80036; stroke-width: 1.0;"/><polygon fill="#A80036" points="2478.55,837.4431,2471.6345,830.4306,2473.8959,835.6157,2468.7107,837.8771,2478.55,837.4431" style="stroke: #A80036; stroke-width: 1.0;"/><text fill="#000000" font-family="sans-serif" font-size="13" lengthAdjust="spacingAndGlyphs" textLength="8" x="2452.947" y="826.4376">1</text><path d="M2911.17,1071.2631 C3174.35,1109.9431 3501,1183.5131 3501,1310.4531 C3501,1310.4531 3501,1310.4531 3501,1919.9531 C3501,1981.8651 3527.97,2016.4871 3482,2057.9531 C3399.65,2132.2331 1792.47,2138.9671 1258.1,2139.1451 " fill="none" style="stroke: #A80036; stroke-width: 1.0;"/><polygon fill="#A80036" points="1253.03,2139.1461,1262.03,2143.1461,1258.03,2139.1461,1262.03,2135.1461,1253.03,2139.1461" style="stroke: #A80036; stroke-width: 1.0;"/><text fill="#000000" font-family="sans-serif" font-size="13" lengthAdjust="spacingAndGlyphs" textLength="8" x="1260.7345" y="2135.8302">1</text><path d="M2432.05,1083.5631 C2376.83,1099.0931 2313.64,1114.5431 2255,1123.4531 C2160.45,1137.8131 1915.98,1110.9931 1825,1140.4531 C1617.31,1207.7131 1566.05,1253.8931 1416,1412.4531 C1409.97,1418.8201 1413.31,1424.6221 1406,1429.4531 C1382.82,1444.7651 1369.86,1427.2851 1344,1437.4531 C1260.89,1470.1331 1179.6,1536.1091 1132.44,1578.7341 " fill="none" style="stroke: #A80036; stroke-width: 1.0;"/><polygon fill="#A80036" points="1128.55,1582.2731,1137.9037,1579.1896,1132.2536,1578.914,1132.5292,1573.2639,1128.55,1582.2731" style="stroke: #A80036; stroke-width: 1.0;"/><text fill="#000000" font-family="sans-serif" font-size="13" lengthAdjust="spacingAndGlyphs" textLength="8" x="1126.5261" y="1571.428">1</text><path d="M2577.38,1083.4731 C2575.13,1098.8031 2572.79,1115.8131 2571,1131.4531 C2565.9,1176.0431 2561.79,1227.0731 2559.18,1263.2031 " fill="none" style="stroke: #A80036; stroke-width: 1.0;"/><polygon fill="#A80036" points="2558.8,1268.4331,2563.4328,1259.7419,2559.1573,1263.4459,2555.4533,1259.1703,2558.8,1268.4331" style="stroke: #A80036; stroke-width: 1.0;"/><text fill="#000000" font-family="sans-serif" font-size="13" lengthAdjust="spacingAndGlyphs" textLength="8" x="2550.6088" y="1257.426">1</text><path d="M1134.42,1656.7731 C1182.45,1694.8041 1263.69,1753.0071 1344,1782.4531 C1516.62,1845.7461 1573.57,1802.1321 1754,1837.4531 C1788.3,1844.1681 1824.44,1852.4191 1859.47,1861.0521 " fill="none" style="stroke: #A80036; stroke-width: 1.0;"/><polygon fill="#A80036" points="1864.63,1862.3281,1856.8533,1856.2847,1859.7762,1861.1279,1854.933,1864.0507,1864.63,1862.3281" style="stroke: #A80036; stroke-width: 1.0;"/><text fill="#000000" font-family="sans-serif" font-size="13" lengthAdjust="spacingAndGlyphs" textLength="30" x="1429" y="1803.52">uses</text><path d="M1087,1988.0451 C1087,2021.6361 1087,2061.3241 1087,2091.5671 " fill="none" style="stroke: #A80036; stroke-width: 1.0;"/><polygon fill="#A80036" points="1087,2096.7171,1091,2087.7171,1087,2091.7171,1083,2087.7171,1087,2096.7171" style="stroke: #A80036; stroke-width: 1.0;"/><text fill="#000000" font-family="sans-serif" font-size="13" lengthAdjust="spacingAndGlyphs" textLength="8" x="1078.3875" y="2085.9935">1</text><path d="M2629.13,774.5031 C2620.82,794.2631 2612.2,814.7631 2604.81,832.3431 " fill="none" style="stroke: #A80036; stroke-width: 1.0;"/><polygon fill="#A80036" points="2602.76,837.2231,2609.9213,830.4618,2604.6881,832.6099,2602.54,827.3767,2602.76,837.2231" style="stroke: #A80036; stroke-width: 1.0;"/><text fill="#000000" font-family="sans-serif" font-size="13" lengthAdjust="spacingAndGlyphs" textLength="8" x="2596.867" y="826.5005">1</text><path d="M3209.32,1758.8491 C3218,1766.8431 3226.61,1774.7561 3235,1782.4531 C3255.86,1801.5911 3278.43,1822.1761 3299.54,1841.3791 " fill="none" style="stroke: #A80036; stroke-width: 1.0;"/><polygon fill="#A80036" points="3303.46,1844.9481,3299.5016,1835.9297,3299.7642,1841.5805,3294.1134,1841.8431,3303.46,1844.9481" style="stroke: #A80036; stroke-width: 1.0;"/><text fill="#000000" font-family="sans-serif" font-size="13" lengthAdjust="spacingAndGlyphs" textLength="30" x="3261" y="1803.52">uses</text><path d="M2917.87,1758.5971 C2902.85,1768.0471 2887.14,1776.2601 2871,1782.4531 C2836.65,1795.6331 2576.61,1786.8561 2540,1790.4531 C2418.34,1802.4071 2386.69,1804.4011 2269,1837.4531 C2251.49,1842.3701 2233.42,1848.2541 2215.6,1854.5731 " fill="none" style="stroke: #A80036; stroke-width: 1.0;"/><polygon fill="#A80036" points="2210.58,1856.3661,2220.3996,1857.125,2215.2919,1854.6935,2217.7234,1849.5859,2210.58,1856.3661" style="stroke: #A80036; stroke-width: 1.0;"/><text fill="#000000" font-family="sans-serif" font-size="13" lengthAdjust="spacingAndGlyphs" textLength="30" x="2541" y="1803.52">uses</text><path d="M2945.45,1480.2061 C2918.1,1455.9481 2887.01,1434.2591 2853.5,1420.9531 C2814.98,1405.6581 1400.89,1408.0521 1361.5,1420.9531 C1266.82,1451.9661 1177.9,1530.1501 1129.32,1578.6261 " fill="none" style="stroke: #A80036; stroke-width: 1.0;"/><polygon fill="#A80036" points="1125.6,1582.3531,1134.7859,1578.8009,1129.1291,1578.8112,1129.1188,1573.1543,1125.6,1582.3531" style="stroke: #A80036; stroke-width: 1.0;"/><text fill="#000000" font-family="sans-serif" font-size="13" lengthAdjust="spacingAndGlyphs" textLength="8" x="1132.4756" y="1571.5223">1</text><path d="M2925.48,1380.6431 C2930.73,1396.9261 2936.96,1414.0471 2944,1429.4531 C2950.99,1444.7661 2958.98,1460.3631 2967.42,1475.6981 " fill="none" style="stroke: #A80036; stroke-width: 1.0;"/><polygon fill="#A80036" points="2970.05,1480.4491,2969.1832,1470.6385,2967.6251,1476.0765,2962.187,1474.5184,2970.05,1480.4491" style="stroke: #A80036; stroke-width: 1.0;"/><text fill="#000000" font-family="sans-serif" font-size="13" lengthAdjust="spacingAndGlyphs" textLength="32" x="2945" y="1425.52">tests</text><path d="M2484.22,1354.5131 C2448.9,1373.1331 2404.98,1393.3091 2363,1404.4531 C2315.19,1417.1471 1952.66,1401.2001 1919,1437.4531 C1866.84,1493.6381 1888.35,1712.1811 1919,1782.4531 C1930.63,1809.1201 1950.39,1832.8951 1971.67,1852.7971 " fill="none" style="stroke: #A80036; stroke-width: 1.0;"/><polygon fill="#A80036" points="1975.38,1856.2121,1971.4667,1847.1741,1971.7011,1852.8261,1966.0491,1853.0604,1975.38,1856.2121" style="stroke: #A80036; stroke-width: 1.0;"/><text fill="#000000" font-family="sans-serif" font-size="13" lengthAdjust="spacingAndGlyphs" textLength="30" x="1920" y="1624.02">uses</text><path d="M1907.44,297.4331 C1864.99,314.2731 1822.92,338.8131 1794,374.4531 C1754.68,422.9231 1768,450.0431 1768,512.4531 C1768,512.4531 1768,512.4531 1768,1132.4531 C1768,1204.6931 1802.15,1728.5981 1754,1782.4531 C1692.73,1850.9861 1433.74,1817.5311 1344,1837.4531 C1329.24,1840.7301 1314.1,1844.4641 1298.92,1848.4881 " fill="none" style="stroke: #A80036; stroke-width: 1.0;"/><polygon fill="#A80036" points="1293.78,1849.8631,1303.5061,1851.4134,1298.6117,1848.5769,1301.4482,1843.6826,1293.78,1849.8631" style="stroke: #A80036; stroke-width: 1.0;"/><text fill="#000000" font-family="sans-serif" font-size="13" lengthAdjust="spacingAndGlyphs" textLength="8" x="1306.6917" y="1839.0575">1</text><path d="M2224.91,266.6531 C2448.78,276.4531 2843.44,303.4731 2966,374.4531 C3032.46,412.9431 3070,435.6531 3070,512.4531 C3070,512.4531 3070,512.4531 3070,1312.4531 C3070,1365.5131 3068.48,1423.7181 3066.62,1474.9901 " fill="none" style="stroke: #A80036; stroke-width: 1.0;"/><polygon fill="#A80036" points="3066.43,1480.2471,3070.7572,1471.3998,3066.6133,1475.2505,3062.7626,1471.1066,3066.43,1480.2471" style="stroke: #A80036; stroke-width: 1.0;"/><text fill="#000000" font-family="sans-serif" font-size="13" lengthAdjust="spacingAndGlyphs" textLength="8" x="3058.5629" y="1469.2814">1</text><path d="M2224.92,271.6331 C2463.52,288.4431 2891.87,325.1031 2942,374.4531 C2986.16,417.9331 2962,450.4831 2962,512.4531 C2962,512.4531 2962,512.4531 2962,881.4531 C2962,922.1731 2885.34,956.9731 2801.15,982.9131 " fill="none" style="stroke: #A80036; stroke-width: 1.0;"/><polygon fill="#A80036" points="2796.37,984.3731,2806.1459,985.5701,2801.152,982.9128,2803.8093,977.9189,2796.37,984.3731" style="stroke: #A80036; stroke-width: 1.0;"/><text fill="#000000" font-family="sans-serif" font-size="13" lengthAdjust="spacingAndGlyphs" textLength="8" x="2817.5314" y="973.4071">1</text><path d="M2224.59,275.8931 C2308.89,290.1331 2410.42,318.3931 2486,374.4531 C2519.04,398.9531 2542.33,440.2731 2556.26,471.3231 " fill="none" style="stroke: #A80036; stroke-width: 1.0;"/><polygon fill="#A80036" points="2558.42,476.2131,2558.4515,466.3643,2556.4039,471.6376,2551.1306,469.5901,2558.42,476.2131" style="stroke: #A80036; stroke-width: 1.0;"/><text fill="#000000" font-family="sans-serif" font-size="13" lengthAdjust="spacingAndGlyphs" textLength="8" x="2547.2886" y="465.3573">1</text><path d="M1907.45,308.4931 C1875.86,324.6831 1845.99,346.1531 1825,374.4531 C1788.08,424.2331 1805,450.4831 1805,512.4531 C1805,512.4531 1805,512.4531 1805,1132.4531 C1805,1282.5531 1862.36,1681.9651 1780,1807.4531 C1769.74,1823.0801 1756.62,1836.5551 1741.86,1848.1631 " fill="none" style="stroke: #A80036; stroke-width: 1.0;"/><polygon fill="#A80036" points="1737.65,1851.3871,1747.2261,1849.0852,1741.6179,1848.3448,1742.3583,1842.7366,1737.65,1851.3871" style="stroke: #A80036; stroke-width: 1.0;"/><text fill="#000000" font-family="sans-serif" font-size="13" lengthAdjust="spacingAndGlyphs" textLength="8" x="1745.7774" y="1845.2807">1</text><path d="M1907.44,276.1331 C1564.81,309.9931 786,399.4031 786,512.4531 C786,512.4531 786,512.4531 786,954.4531 C786,1445.3421 522.321,1677.8861 833,2057.9531 C854.429,2084.1681 884.351,2102.0151 916.163,2114.1361 " fill="none" style="stroke: #A80036; stroke-width: 1.0;"/><polygon fill="#A80036" points="920.87,2115.8831,913.8247,2109.001,916.1826,2114.143,911.0405,2116.5009,920.87,2115.8831" style="stroke: #A80036; stroke-width: 1.0;"/><text fill="#000000" font-family="sans-serif" font-size="13" lengthAdjust="spacingAndGlyphs" textLength="8" x="905.161" y="2111.5131">1</text></g></svg>